<svg id="visual" viewBox="0 0 675 900" width="675" height="900" xmlns="http://www.w3.org/2000/svg" xmlns:xlink="http://www.w3.org/1999/xlink" version="1.1"><rect x="0" y="0" width="675" height="900" fill="#00b475"></rect><g transform="translate(608.9481184915996 94.15191565685183)"><path d="M397.1 -674.4C518.9 -617.5 624.8 -519.7 631.1 -400.5C637.5 -281.3 544.2 -140.6 483.2 -35.2C422.2 70.2 393.4 140.3 375.5 239.5C357.6 338.7 350.5 466.8 289.8 490.4C229 514 114.5 433 -3.2 438.6C-121 444.2 -242 536.5 -341.6 535.3C-441.2 534.2 -519.4 439.6 -494 334.8C-468.7 230 -339.8 115 -349.1 -5.3C-358.3 -125.7 -505.6 -251.3 -499.1 -301C-492.7 -350.6 -332.3 -324.3 -223.5 -388.6C-114.7 -452.9 -57.3 -608 40.2 -677.5C137.7 -747.1 275.3 -731.2 397.1 -674.4" fill="#008053"></path></g></svg>