<svg xmlns="http://www.w3.org/2000/svg" xmlns:xlink="http://www.w3.org/1999/xlink" width="1280" zoomAndPan="magnify" viewBox="0 0 960 540.000001" height="720" preserveAspectRatio="xMidYMid meet" version="1.0"><defs><clipPath id="33c7a5b7ae"><path d="M 173.261719 173 L 254 173 L 254 218 L 173.261719 218 Z M 173.261719 173 " clip-rule="nonzero"/></clipPath><clipPath id="51c8d80c08"><path d="M 620.035156 161.699219 L 803.445312 161.699219 L 803.445312 377.300781 L 620.035156 377.300781 Z M 620.035156 161.699219 " clip-rule="nonzero"/></clipPath></defs><path fill="#00b475" d="M 489.78125 224.320312 C 508.371094 218.847656 548.316406 212.789062 563.820312 254.808594 C 568.046875 266.246094 569.238281 278.566406 568.082031 290.707031 C 566.453125 307.832031 560.480469 333.910156 540.765625 356.816406 C 528.140625 371.488281 508.097656 377.261719 489.765625 371.027344 C 488.449219 370.582031 487.136719 370.097656 485.828125 369.570312 C 482.078125 368.066406 477.875 368.089844 474.132812 369.589844 C 472.90625 370.074219 471.671875 370.535156 470.449219 370.953125 C 452.179688 377.21875 432.039062 371.628906 419.40625 357.019531 C 399.609375 334.140625 393.582031 308.042969 391.917969 290.871094 C 390.742188 278.675781 391.929688 266.304688 396.171875 254.808594 C 408.210938 222.171875 436.957031 214.648438 470.308594 224.34375 C 479.035156 226.886719 490.886719 224.152344 489.78125 224.320312 " fill-opacity="1" fill-rule="nonzero"/><path fill="#00b475" d="M 521.488281 163.011719 C 486.058594 161.738281 475.726562 186.503906 472.824219 198.261719 C 467.246094 191.882812 459.402344 186.148438 448.914062 182.523438 C 446.902344 181.832031 444.695312 182.898438 443.996094 184.921875 C 443.296875 186.9375 444.375 189.140625 446.390625 189.839844 C 463.121094 195.625 471.945312 207.425781 474.980469 217.417969 C 476.238281 217.589844 477.628906 217.691406 479.132812 217.691406 C 480.539062 217.691406 481.855469 217.617188 483.03125 217.507812 C 482.144531 213.773438 480.554688 209.761719 478.226562 205.78125 C 495.714844 208.46875 508.296875 199.578125 513.222656 193.820312 C 525.355469 179.636719 521.488281 163.011719 521.488281 163.011719 " fill-opacity="1" fill-rule="nonzero"/><g clip-path="url(#33c7a5b7ae)"><path fill="#00b475" d="M 252.441406 200.109375 C 252.527344 200 252.613281 199.886719 252.699219 199.78125 C 252.71875 199.753906 252.738281 199.726562 252.757812 199.703125 C 252.980469 199.421875 253.195312 199.136719 253.414062 198.847656 C 253.414062 198.847656 253.277344 198.578125 253.007812 198.09375 C 249.347656 191.542969 221.191406 145.832031 173.351562 196.925781 C 173.34375 196.933594 173.332031 196.941406 173.324219 196.949219 C 173.324219 196.949219 219.242188 242.085938 252.441406 200.109375 Z M 252.441406 200.109375 " fill-opacity="1" fill-rule="nonzero"/></g><path fill="#00b475" d="M 254.484375 200.085938 C 255.441406 200.347656 256.378906 200.6875 257.292969 201.089844 C 258.492188 201.617188 259.648438 202.242188 260.757812 202.953125 C 260.523438 201.917969 260.289062 200.941406 260.050781 200.023438 C 259.386719 199.726562 258.710938 199.457031 258.023438 199.21875 C 257.015625 198.863281 255.992188 198.578125 254.941406 198.371094 C 255.09375 198.859375 255.003906 199.398438 254.691406 199.8125 C 254.625 199.902344 254.554688 199.992188 254.484375 200.085938 Z M 254.484375 200.085938 " fill-opacity="1" fill-rule="nonzero"/><path fill="#00b475" d="M 251.964844 179.195312 C 252.285156 179.753906 253.472656 180.871094 253.609375 181.042969 C 254.507812 182.207031 255.625 183.335938 256.808594 186.011719 C 258.273438 189.324219 260.136719 193.539062 261.933594 200.945312 C 262.191406 201.996094 262.445312 203.109375 262.695312 204.296875 C 263.257812 206.953125 263.804688 209.960938 264.324219 213.398438 C 265.363281 213.3125 266.390625 213.269531 267.40625 213.269531 C 267.875 213.269531 268.339844 213.277344 268.804688 213.296875 C 266.542969 193.925781 259.746094 179.578125 258.996094 177.925781 C 258.648438 177.15625 258.339844 176.164062 257.757812 175.535156 C 257.730469 175.492188 257.671875 175.464844 257.59375 175.457031 C 257.535156 175.449219 257.460938 175.449219 257.378906 175.460938 C 257.105469 175.492188 256.714844 175.625 256.257812 175.824219 C 256.257812 175.824219 256.253906 175.828125 256.25 175.828125 C 256.042969 175.921875 255.820312 176.027344 255.589844 176.148438 C 255.578125 176.152344 255.566406 176.160156 255.554688 176.164062 C 255.332031 176.28125 255.101562 176.410156 254.867188 176.550781 C 254.84375 176.5625 254.824219 176.574219 254.800781 176.589844 C 254.683594 176.660156 254.570312 176.730469 254.453125 176.800781 C 254.382812 176.847656 254.308594 176.894531 254.242188 176.941406 C 254.226562 176.949219 254.214844 176.957031 254.199219 176.964844 C 254.140625 177.003906 254.085938 177.042969 254.03125 177.082031 C 254.015625 177.089844 254.003906 177.097656 253.992188 177.105469 C 253.933594 177.148438 253.875 177.1875 253.816406 177.226562 C 253.808594 177.230469 253.800781 177.238281 253.796875 177.242188 C 253.089844 177.738281 252.527344 178.226562 252.214844 178.597656 C 252.203125 178.613281 252.195312 178.625 252.1875 178.636719 C 252.160156 178.664062 252.140625 178.691406 252.121094 178.71875 C 252.113281 178.726562 252.109375 178.734375 252.105469 178.742188 C 252.074219 178.78125 252.046875 178.824219 252.027344 178.859375 C 251.953125 178.976562 251.929688 179.074219 251.945312 179.148438 C 251.949219 179.164062 251.953125 179.179688 251.964844 179.195312 Z M 251.964844 179.195312 " fill-opacity="1" fill-rule="nonzero"/><path fill="#00b475" d="M 323.230469 286.109375 C 320.816406 281.699219 318.296875 277.351562 315.871094 273.035156 C 313.027344 267.984375 310.792969 262.570312 309.246094 256.917969 C 303.644531 236.414062 290.453125 216.917969 270.589844 215.023438 C 270.058594 214.96875 269.523438 214.933594 268.980469 214.90625 C 267.542969 214.839844 266.066406 214.863281 264.558594 214.984375 C 264.03125 215.03125 263.5 215.082031 262.964844 215.152344 C 261.984375 215.273438 260.988281 215.4375 259.980469 215.644531 C 240.894531 219.542969 230.253906 238.441406 225.207031 256.917969 C 223.664062 262.570312 221.425781 267.984375 218.585938 273.035156 C 207.027344 293.570312 193.40625 314.855469 198.816406 339.925781 C 203.664062 362.371094 221.5 377.464844 241.804688 383.246094 C 242.089844 383.328125 242.378906 383.410156 242.667969 383.488281 C 277.402344 392.984375 326.441406 382.53125 335.636719 339.925781 C 339.910156 320.121094 332.308594 302.683594 323.230469 286.109375 Z M 323.230469 286.109375 " fill-opacity="1" fill-rule="nonzero"/><g clip-path="url(#51c8d80c08)"><path fill="#00b475" d="M 713.40625 187.875 C 710.746094 171.53125 698.273438 169.507812 684.402344 167.257812 C 677.324219 166.109375 669.878906 164.902344 663.191406 161.703125 C 663.191406 161.703125 663.726562 167.304688 664.945312 171.054688 C 668.871094 183.140625 675.960938 185.089844 684.132812 187.335938 C 684.671875 187.484375 685.242188 187.636719 685.835938 187.796875 C 693.148438 189.753906 703.992188 192.660156 708.59375 201.359375 C 659.410156 202.914062 620.035156 241.695312 620.035156 289.304688 C 620.035156 337.902344 661.058594 377.300781 711.664062 377.300781 C 762.269531 377.300781 803.292969 337.902344 803.292969 289.304688 C 803.292969 241.394531 763.425781 202.429688 713.808594 201.332031 C 717.125 195.511719 725.390625 193.328125 730.890625 191.871094 C 731.316406 191.757812 731.726562 191.652344 732.117188 191.546875 C 738.011719 189.949219 743.128906 188.566406 746.308594 181.273438 C 747.296875 179.011719 747.855469 175.671875 747.855469 175.671875 C 742.984375 177.785156 737.644531 178.738281 732.5625 179.644531 C 724.582031 181.070312 717.25 182.378906 713.40625 187.875 Z M 713.40625 187.875 " fill-opacity="1" fill-rule="nonzero"/></g></svg>