<svg xmlns="http://www.w3.org/2000/svg" width="24" height="24" viewBox="0 0 24 24">

  <symbol id="icon-home" viewBox="0 0 24 24">
    <path fill="currentColor" d="M12 3s-6.186 5.34-9.643 8.232A1.04 1.04 0 0 0 2 12a1 1 0 0 0 1 1h2v7a1 1 0 0 0 1 1h3a1 1 0 0 0 1-1v-4h4v4a1 1 0 0 0 1 1h3a1 1 0 0 0 1-1v-7h2a1 1 0 0 0 1-1a.98.98 0 0 0-.383-.768C18.184 8.34 12 3 12 3"/>
  </symbol>

  <symbol id="apple-black" viewBox="0 0 24 24">
    <g fill="none" stroke="#000" stroke-linecap="round" stroke-linejoin="round" stroke-width="1.5">
      <path d="M8 5c-2.761 0-5 3.014-5 6.028c0 3.516.5 6.028 2.5 9.042c1.52 2.036 3.55 2.547 5.714 1.12a1.47 1.47 0 0 1 1.572 0c2.164 1.427 4.194.916 5.714-1.12c2-3.014 2.5-5.526 2.5-9.042C21 8.014 18.761 5 16 5c-1.425 0-2.711.785-3.622 1.633a.557.557 0 0 1-.756 0C10.712 5.785 9.425 5 8 5"/>
      <path d="M6 12c0-1.633.823-3.267 2-4m4-2c0-1.333.6-4 3-4"/>
    </g>
  </symbol>

  <symbol id="apple-white" viewBox="0 0 24 24">
    <g fill="none" stroke="#fff" stroke-linecap="round" stroke-linejoin="round" stroke-width="1.5">
      <path d="M8 5c-2.761 0-5 3.014-5 6.028c0 3.516.5 6.028 2.5 9.042c1.52 2.036 3.55 2.547 5.714 1.12a1.47 1.47 0 0 1 1.572 0c2.164 1.427 4.194.916 5.714-1.12c2-3.014 2.5-5.526 2.5-9.042C21 8.014 18.761 5 16 5c-1.425 0-2.711.785-3.622 1.633a.557.557 0 0 1-.756 0C10.712 5.785 9.425 5 8 5"/>
      <path d="M6 12c0-1.633.823-3.267 2-4m4-2c0-1.333.6-4 3-4"/>
    </g>
  </symbol>

  <symbol id="menu-white" viewBox="0 0 24 24">
    <path fill="none" stroke="#fff" stroke-linecap="round" stroke-linejoin="round" stroke-width="2" d="M6 8h12M6 12h12M6 16h12"/>
  </symbol>

  <symbol id="apple" viewBox="0 0 24 24">
	<g fill="none" stroke="#4CC844" stroke-linecap="round" stroke-linejoin="round" stroke-width="1.5" color="#4CC844">
		<path d="M8 5c-2.761 0-5 3.014-5 6.028c0 3.516.5 6.028 2.5 9.042c1.52 2.036 3.55 2.547 5.714 1.12a1.47 1.47 0 0 1 1.572 0c2.164 1.427 4.194.916 5.714-1.12c2-3.014 2.5-5.526 2.5-9.042C21 8.014 18.761 5 16 5c-1.425 0-2.711.785-3.622 1.633a.557.557 0 0 1-.756 0C10.712 5.785 9.425 5 8 5" />
		<path d="M6 12c0-1.633.823-3.267 2-4m4-2c0-1.333.6-4 3-4" />
	</g>
</symbol>

<symbol id="arrowl" viewBox="0 0 24 24">
	<g fill="#000" fill-rule="evenodd" clip-rule="evenodd">
		<path d="M2.461 12a.75.75 0 0 1 .75-.75l17.79.012a.75.75 0 1 1-.002 1.5L3.21 12.75a.75.75 0 0 1-.749-.75" />
		<path d="M10.517 4.47a.75.75 0 0 1 .001 1.06L4.06 12l6.458 6.47a.75.75 0 0 1-1.061 1.06l-6.988-7a.75.75 0 0 1 0-1.06l6.988-7a.75.75 0 0 1 1.06 0" />
	</g>
</symbol>
</svg>
