<svg xmlns="http://www.w3.org/2000/svg" width="24" height="24" viewBox="0 0 24 24">

  <symbol id="icon-home" viewBox="0 0 24 24">
    <path fill="currentColor" d="M12 3s-6.186 5.34-9.643 8.232A1.04 1.04 0 0 0 2 12a1 1 0 0 0 1 1h2v7a1 1 0 0 0 1 1h3a1 1 0 0 0 1-1v-4h4v4a1 1 0 0 0 1 1h3a1 1 0 0 0 1-1v-7h2a1 1 0 0 0 1-1a.98.98 0 0 0-.383-.768C18.184 8.34 12 3 12 3"/>
  </symbol>

  <symbol id="apple-black" viewBox="0 0 24 24">
    <g fill="none" stroke="#000" stroke-linecap="round" stroke-linejoin="round" stroke-width="1.5">
      <path d="M8 5c-2.761 0-5 3.014-5 6.028c0 3.516.5 6.028 2.5 9.042c1.52 2.036 3.55 2.547 5.714 1.12a1.47 1.47 0 0 1 1.572 0c2.164 1.427 4.194.916 5.714-1.12c2-3.014 2.5-5.526 2.5-9.042C21 8.014 18.761 5 16 5c-1.425 0-2.711.785-3.622 1.633a.557.557 0 0 1-.756 0C10.712 5.785 9.425 5 8 5"/>
      <path d="M6 12c0-1.633.823-3.267 2-4m4-2c0-1.333.6-4 3-4"/>
    </g>
  </symbol>

  <symbol id="apple-white" viewBox="0 0 24 24">
    <g fill="none" stroke="#fff" stroke-linecap="round" stroke-linejoin="round" stroke-width="1.5">
      <path d="M8 5c-2.761 0-5 3.014-5 6.028c0 3.516.5 6.028 2.5 9.042c1.52 2.036 3.55 2.547 5.714 1.12a1.47 1.47 0 0 1 1.572 0c2.164 1.427 4.194.916 5.714-1.12c2-3.014 2.5-5.526 2.5-9.042C21 8.014 18.761 5 16 5c-1.425 0-2.711.785-3.622 1.633a.557.557 0 0 1-.756 0C10.712 5.785 9.425 5 8 5"/>
      <path d="M6 12c0-1.633.823-3.267 2-4m4-2c0-1.333.6-4 3-4"/>
    </g>
  </symbol>

  <symbol id="menu-white" viewBox="0 0 24 24">
    <path fill="none" stroke="#fff" stroke-linecap="round" stroke-linejoin="round" stroke-width="2" d="M6 8h12M6 12h12M6 16h12"/>
  </symbol>

  <symbol id="apple" viewBox="0 0 24 24">
	<g fill="none" stroke="#4CC844" stroke-linecap="round" stroke-linejoin="round" stroke-width="1.5" color="#4CC844">
		<path d="M8 5c-2.761 0-5 3.014-5 6.028c0 3.516.5 6.028 2.5 9.042c1.52 2.036 3.55 2.547 5.714 1.12a1.47 1.47 0 0 1 1.572 0c2.164 1.427 4.194.916 5.714-1.12c2-3.014 2.5-5.526 2.5-9.042C21 8.014 18.761 5 16 5c-1.425 0-2.711.785-3.622 1.633a.557.557 0 0 1-.756 0C10.712 5.785 9.425 5 8 5" />
		<path d="M6 12c0-1.633.823-3.267 2-4m4-2c0-1.333.6-4 3-4" />
	</g>
</symbol>

<symbol id="arrowl" viewBox="0 0 24 24">
	<g fill="#000" fill-rule="evenodd" clip-rule="evenodd">
		<path d="M2.461 12a.75.75 0 0 1 .75-.75l17.79.012a.75.75 0 1 1-.002 1.5L3.21 12.75a.75.75 0 0 1-.749-.75" />
		<path d="M10.517 4.47a.75.75 0 0 1 .001 1.06L4.06 12l6.458 6.47a.75.75 0 0 1-1.061 1.06l-6.988-7a.75.75 0 0 1 0-1.06l6.988-7a.75.75 0 0 1 1.06 0" />
	</g>
</symbol>

<symbol id="close-black" viewBox="0 0 24 24">
	<path fill="#000" d="M6.4 19L5 17.6l5.6-5.6L5 6.4L6.4 5l5.6 5.6L17.6 5L19 6.4L13.4 12l5.6 5.6l-1.4 1.4l-5.6-5.6z" />
</symbol>

<symbol id="instagram-black" viewBox="0 0 24 24">
	<path fill="#000" d="M7.8 2h8.4C19.4 2 22 4.6 22 7.8v8.4a5.8 5.8 0 0 1-5.8 5.8H7.8C4.6 22 2 19.4 2 16.2V7.8A5.8 5.8 0 0 1 7.8 2m-.2 2A3.6 3.6 0 0 0 4 7.6v8.8C4 18.39 5.61 20 7.6 20h8.8a3.6 3.6 0 0 0 3.6-3.6V7.6C20 5.61 18.39 4 16.4 4zm9.65 1.5a1.25 1.25 0 0 1 1.25 1.25A1.25 1.25 0 0 1 17.25 8A1.25 1.25 0 0 1 16 6.75a1.25 1.25 0 0 1 1.25-1.25M12 7a5 5 0 0 1 5 5a5 5 0 0 1-5 5a5 5 0 0 1-5-5a5 5 0 0 1 5-5m0 2a3 3 0 0 0-3 3a3 3 0 0 0 3 3a3 3 0 0 0 3-3a3 3 0 0 0-3-3" />
</symbol>

<symbol id="facebook-black" viewBox="0 0 24 24">
	<path fill="#000" d="M22 12c0-5.52-4.48-10-10-10S2 6.48 2 12c0 4.84 3.44 8.87 8 9.8V15H8v-3h2V9.5C10 7.57 11.57 6 13.5 6H16v3h-2c-.55 0-1 .45-1 1v2h3v3h-3v6.95c5.05-.5 9-4.76 9-9.95" />
</symbol>


<symbol id="person" viewBox="0 0 24 24">
	<path fill="currentColor" d="M12 12q-1.65 0-2.825-1.175T8 8t1.175-2.825T12 4t2.825 1.175T16 8t-1.175 2.825T12 12m-8 8v-2.8q0-.85.438-1.562T5.6 14.55q1.55-.775 3.15-1.162T12 13t3.25.388t3.15 1.162q.725.375 1.163 1.088T20 17.2V20z" />
</symbol>

<symbol id="orange" viewBox="0 0 24 24">
	<path fill="currentColor" d="M12 21q-2.925 0-4.962-2.037T5 14q0-2.35 1.388-4.212t3.637-2.513q-.825-.2-1.437-.712T7.6 5.325T7.075 3.75t-.05-1.725q1.025-.125 1.95.125t1.675.8t1.238 1.325t.587 1.75q.325-.775.788-1.463T14.3 3.3q.275-.275.7-.275t.7.275t.275.7t-.275.7q-.55.55-.975 1.213T14.1 7.325q2.2.7 3.55 2.538T19 14q0 2.925-2.037 4.963T12 21" />
</symbol>


<symbol id="diet" viewBox="0 0 14 14">
	<path fill="currentColor" fill-rule="evenodd" d="M3.242 1.711c.627-.272 1.125-.261 1.519-.082c.405.184.807.596 1.129 1.336q.182.423.246.78c.058.31.337.528.652.51c.386-.024.749.083 1.078.359q-.225.145-.416.337c-.32.32-.542.71-.675 1.152a3.6 3.6 0 0 0-.131.65a4.4 4.4 0 0 0-.016.781q-.254 0-.507.003c-.126-.929-.347-2.016-1.255-3.079a.625.625 0 1 0-.95.812c.638.747.825 1.482.944 2.288a96 96 0 0 0-2.603.094c-.15-.722.034-1.244.424-1.615a.625.625 0 0 0 .072-.824a3.6 3.6 0 0 1-.401-.713c-.322-.74-.348-1.314-.206-1.736c.137-.41.47-.78 1.096-1.053M12.8 7.928q.055-.332.054-.691c0-.913-.258-1.714-.831-2.286s-1.374-.831-2.287-.831q-.3 0-.583.038c-.505-.638-1.154-1.04-1.91-1.135a5 5 0 0 0-.207-.556C6.636 1.546 6.053.843 5.278.49C4.492.134 3.617.186 2.745.565c-.873.378-1.509.982-1.784 1.8c-.271.807-.156 1.713.244 2.633q.123.28.266.531c-.504.696-.625 1.552-.418 2.464a1.44 1.44 0 0 0-.796 1.434c.134 1.327.446 2.485 1.522 3.262C2.81 13.433 4.45 13.75 7 13.75s4.189-.316 5.221-1.061c1.076-.776 1.388-1.934 1.522-3.261a1.45 1.45 0 0 0-.943-1.5m-4.918-.39a95 95 0 0 1 3.697.106q.025-.187.025-.407c0-.683-.19-1.127-.465-1.402s-.72-.465-1.403-.465q-.393.002-.686.078l-.014.004a2 2 0 0 0-.215.07q-.2.08-.35.193a1.3 1.3 0 0 0-.402.497c-.124.257-.2.593-.2 1.025q0 .159.013.3" clip-rule="evenodd" />
</symbol>

<symbol id="target" viewBox="0 0 24 24">
	<g fill="none">
		<path d="m12.593 23.258l-.011.002l-.071.035l-.02.004l-.014-.004l-.071-.035q-.016-.005-.024.005l-.004.01l-.017.428l.005.02l.01.013l.104.074l.015.004l.012-.004l.104-.074l.012-.016l.004-.017l-.017-.427q-.004-.016-.017-.018m.265-.113l-.013.002l-.185.093l-.01.01l-.003.011l.018.43l.005.012l.008.007l.201.093q.019.005.029-.008l.004-.014l-.034-.614q-.005-.018-.02-.022m-.715.002a.02.02 0 0 0-.027.006l-.006.014l-.034.614q.001.018.017.024l.015-.002l.201-.093l.01-.008l.004-.011l.017-.43l-.003-.012l-.01-.01z" />
		<path fill="currentColor" d="M12 2c.896 0 1.764.118 2.59.339l-2.126 2.125A3 3 0 0 0 12.04 5H12a7 7 0 1 0 7 7v-.04q.29-.18.535-.425l2.126-2.125c.221.826.339 1.694.339 2.59c0 5.523-4.477 10-10 10S2 17.523 2 12S6.477 2 12 2m-.414 5.017c0 .851-.042 1.714.004 2.564l-.54.54a2 2 0 1 0 2.829 2.829l.54-.54c.85.046 1.712.004 2.564.004a5 5 0 1 1-5.397-5.397m6.918-4.89a1 1 0 0 1 .617.923v1.83h1.829a1 1 0 0 1 .707 1.707L18.12 10.12a1 1 0 0 1-.707.293H15l-1.828 1.829a1 1 0 0 1-1.415-1.415L13.586 9V6.586a1 1 0 0 1 .293-.708l3.535-3.535a1 1 0 0 1 1.09-.217" />
	</g>
</symbol>
</svg>
