<?xml version="1.0" standalone="no"?>
<!DOCTYPE svg PUBLIC "-//W3C//DTD SVG 1.1//EN" "http://www.w3.org/Graphics/SVG/1.1/DTD/svg11.dtd">
<svg xmlns="http://www.w3.org/2000/svg" width="2298" height="2298" viewBox="0 0 2298 2298" fill="none">
<mask id="mask0_2610_1382" style="mask-type:alpha" maskUnits="userSpaceOnUse" x="0" y="0" width="2291" height="2291">
<circle cx="1145.23" cy="1145.23" r="1145.23" fill="#D9D9D9"/>
</mask>
<g mask="url(#mask0_2610_1382)">
<path d="M1773.07 2090.73C1767.81 2094.48 1761.8 2098.24 1756.54 2101.99C1750.54 2105.75 1745.28 2109.5 1739.27 2112.51C1734.01 2115.51 1729.51 2118.52 1724.25 2121.52C1723.5 2122.27 1722.75 2122.27 1722 2123.02C1704.73 2133.53 1686.7 2143.3 1668.68 2152.31C1663.42 2155.31 1657.41 2158.32 1652.16 2160.57C1652.16 2160.57 1651.41 2161.32 1650.66 2161.32C1644.65 2164.32 1638.64 2167.33 1632.63 2170.33C1620.62 2176.34 1607.85 2181.6 1595.83 2186.85C1589.83 2189.86 1583.07 2192.11 1577.06 2194.36C1571.05 2196.62 1564.29 2199.62 1558.29 2201.87C1552.28 2204.13 1545.52 2207.13 1539.51 2209.38C1539.51 2209.38 1539.51 2209.38 1538.76 2209.38C1532.75 2211.64 1525.99 2213.89 1519.99 2216.14C1506.47 2220.65 1492.2 2225.15 1478.68 2229.66C1474.18 2231.16 1468.92 2232.66 1464.41 2234.17C1450.14 2238.67 1435.88 2242.43 1421.61 2245.43C1416.35 2246.93 1411.09 2247.68 1405.09 2249.19C1391.57 2252.19 1377.3 2255.19 1363.78 2258.2C1360.78 2258.95 1358.52 2258.95 1355.52 2259.7C1351.01 2260.45 1345.76 2261.2 1341.25 2261.95C1334.49 2262.7 1328.49 2264.21 1321.73 2264.96C1318.72 2265.71 1315.72 2265.71 1312.72 2266.46C1308.96 2267.21 1304.45 2267.96 1299.95 2267.96C1287.93 2269.46 1275.17 2270.96 1263.15 2272.47C1259.4 2273.22 1254.89 2273.22 1251.13 2273.97H1250.38C1245.13 2274.72 1239.87 2274.72 1234.61 2275.47C1229.36 2276.22 1224.1 2276.22 1218.84 2276.22C1215.84 2276.22 1212.08 2276.97 1209.08 2276.97C1203.07 2276.97 1197.82 2277.72 1192.56 2277.72C1185.05 2277.72 1178.29 2278.47 1170.78 2278.47C1163.27 2278.47 1156.51 2278.47 1149 2278.47C1143.74 2278.47 1138.49 2278.47 1133.23 2278.47C816.317 2273.97 531.695 2139.54 328.18 1926.26C328.18 1926.26 328.18 1925.51 327.429 1925.51C304.899 1905.24 324.425 1797.1 415.294 1728.76C529.443 1642.39 802.799 1588.32 802.799 1588.32C802.799 1588.32 908.688 1571.05 1301.45 1652.91C1531.25 1700.97 1706.23 1770.81 1803.86 1960.06C1824.13 1999.11 1844.41 2059.19 1773.07 2090.73Z" fill="#865439"/>
<path d="M1303.7 1644.65C1447.89 1673.93 1601.84 1705.48 1720.5 1800.85C1760.3 1833.14 1786.58 1880.45 1808.36 1926.26C1818.88 1948.79 1829.39 1972.07 1837.65 1996.86C1842.16 2013.38 1848.92 2032.15 1845.16 2051.68C1844.41 2056.93 1839.9 2063.69 1836.15 2067.45C1818.88 2084.72 1800.1 2095.23 1781.33 2108.75C1670.93 2185.35 1544.02 2239.42 1412.6 2267.96C1119.71 2331.79 802.799 2282.23 545.213 2128.28C459.601 2076.46 380.748 2013.38 313.16 1939.03C305.65 1930.02 305.65 1915 305.65 1905.24C306.401 1882.71 312.409 1860.93 319.919 1840.65C337.943 1794.09 361.223 1747.53 401.025 1715.24C429.562 1695.71 460.352 1679.19 491.894 1665.67C591.023 1623.62 695.409 1594.33 802.799 1582.32C811.811 1581.56 813.313 1594.33 804.301 1595.83C701.417 1616.86 599.284 1648.4 503.909 1691.21C469.364 1708.48 432.566 1723.5 404.78 1750.53C378.495 1779.07 359.721 1814.37 344.701 1850.42C334.939 1872.19 328.18 1906.74 331.184 1924.01C378.495 1980.33 434.068 2029.9 494.146 2072.71C823.076 2302.51 1322.48 2317.52 1672.43 2126.02C1703.98 2108.75 1734.77 2089.23 1764.05 2068.95C1778.32 2059.19 1793.34 2050.93 1804.61 2039.66C1805.36 2038.91 1804.61 2039.66 1804.61 2040.41C1804.61 2041.16 1803.86 2041.91 1803.86 2041.91C1804.61 2032.9 1801.6 2020.89 1797.85 2008.87C1784.33 1965.32 1762.55 1919.51 1739.27 1879.7C1702.47 1820.38 1640.14 1782.83 1577.06 1752.79C1533.5 1732.51 1487.69 1716.74 1441.13 1701.72C1394.57 1686.7 1347.26 1673.93 1299.95 1662.67C1287.93 1659.67 1291.69 1642.39 1303.7 1644.65Z" fill="black"/>
<path d="M2022.39 2556.34H123.165C123.165 2556.34 235.061 2320.53 284.626 2051.68C319.171 1865.44 344.704 1756.54 441.581 1696.46C509.92 1654.41 702.171 1593.58 838.849 1574.05C894.422 1566.54 1004.82 1558.28 1100.19 1565.79C1172.28 1574.81 1320.98 1616.86 1378.05 1632.63C1463.67 1656.66 1649.16 1728.01 1731.01 1803.1C1763.31 1833.14 1839.91 1983.34 1889.47 2201.12C1946.55 2448.95 2022.39 2556.34 2022.39 2556.34Z" fill="#FF81A0"/>
<path d="M2039.66 2565.35C1484.69 2570.61 672.129 2581.87 123.914 2579.62C107.392 2580.37 95.3764 2561.59 102.886 2546.57C174.98 2387.37 229.802 2217.65 263.596 2045.67C291.382 1911.25 308.655 1741.52 444.582 1670.93C511.42 1637.14 582.012 1614.61 653.355 1593.58C778.769 1556.78 911.692 1538.76 1042.36 1542.51C1062.64 1543.26 1083.67 1544.02 1104.69 1545.52C1149.75 1552.28 1194.06 1563.54 1237.62 1574.81C1276.67 1584.57 1316.47 1595.83 1354.77 1607.1C1359.28 1609.35 1360.78 1618.36 1363.03 1622.87C1366.04 1628.13 1369.79 1627.37 1375.05 1625.12C1377.3 1624.37 1379.55 1622.87 1381.81 1623.62C1387.06 1624.37 1394.57 1627.37 1399.83 1628.88C1516.23 1666.43 1633.38 1710.73 1731.76 1785.08C1746.03 1795.59 1757.3 1809.86 1766.31 1824.88C1784.33 1853.42 1799.35 1882.71 1812.87 1912.75C1853.42 2002.11 1883.46 2095.99 1905.99 2191.36C1935.28 2310.77 1969.82 2430.92 2032.15 2537.56L2035.16 2542.07L2036.66 2544.32C2041.17 2548.08 2042.67 2559.34 2039.66 2565.35ZM2005.12 2547.33C2001.36 2551.83 2002.12 2561.59 2005.12 2565.35L2004.37 2563.85L2002.87 2560.84C1968.32 2506.77 1942.79 2446.69 1921.01 2387.37C1898.48 2326.54 1881.21 2261.95 1866.19 2198.87C1844.41 2105.75 1815.87 2014.13 1777.57 1927.02C1761.05 1890.22 1744.53 1853.42 1719.75 1822.63C1705.48 1808.36 1688.96 1796.35 1671.68 1785.08C1585.32 1729.51 1488.45 1688.96 1390.82 1657.41C1387.06 1655.91 1378.05 1653.66 1373.55 1652.16C1369.04 1650.66 1369.04 1637.89 1366.04 1634.88C1359.28 1628.88 1351.77 1645.4 1345.01 1643.9C1306.71 1633.38 1266.91 1622.87 1227.85 1613.86C1181.29 1603.34 1135.48 1591.33 1088.92 1587.57C883.155 1574.06 675.133 1617.61 485.886 1699.47C394.267 1737.02 359.722 1821.88 337.943 1912.75C318.418 1989.35 307.153 2072.71 289.129 2150.06C254.584 2293.49 206.522 2431.67 145.692 2566.85L124.665 2533.81C657.861 2532.31 1464.41 2540.57 2005.12 2547.33Z" fill="#FF81A0"/>
<path d="M1374.29 1844.41C1358.52 1921.76 1256.39 1968.32 1084.41 1898.48C905.677 1826.38 828.326 1654.41 808.801 1603.34C914.689 1405.08 841.093 1267.66 841.093 1267.66C1085.16 1246.63 1298.44 1532 1298.44 1532L1331.48 1673.18C1334.49 1685.2 1340.49 1695.71 1349.51 1703.22C1365.28 1731.01 1384.05 1794.84 1374.29 1844.41Z" fill="#865439"/>
<path d="M805.049 1605.6C819.318 1583.82 828.33 1558.29 834.338 1533.5C845.602 1481.69 849.357 1429.12 850.108 1376.55V1357.02C847.855 1337.5 841.096 1317.22 833.587 1299.2C823.824 1275.17 859.12 1260.15 870.385 1284.18C871.887 1287.18 871.887 1292.44 871.887 1295.44C874.14 1397.58 878.645 1529 814.061 1613.86C809.555 1618.36 800.543 1611.6 805.049 1605.6Z" fill="black"/>
<path d="M1306.7 1530.5C1317.97 1537.26 1321.72 1546.27 1323.22 1555.28C1327.73 1573.31 1326.23 1592.83 1330.73 1611.61C1334.49 1629.63 1345.75 1646.9 1348.76 1665.68C1352.51 1685.2 1363.78 1726.51 1368.28 1746.78C1369.78 1751.29 1366.78 1756.54 1361.52 1757.3C1358.52 1758.05 1356.27 1757.3 1354.01 1755.79C1344.25 1747.53 1339.75 1739.27 1333.74 1728.76C1323.97 1710.73 1317.22 1694.21 1311.21 1673.94C1305.95 1655.91 1308.2 1636.39 1303.7 1617.61C1299.94 1599.59 1289.43 1582.32 1285.67 1563.54C1283.42 1554.53 1282.67 1544.77 1289.43 1533.5C1293.94 1529 1301.44 1527.5 1306.7 1530.5Z" fill="black"/>
<path d="M1360.77 1728.76C1217.34 1721.25 1100.18 1676.19 986.036 1472.67C1082.16 1557.53 1195.56 1589.83 1314.97 1604.85L1330.74 1673.94C1333.74 1685.95 1351.76 1721.25 1360.77 1728.76Z" fill="black"/>
<path d="M1354.77 1700.97C1380.3 1749.03 1395.32 1809.11 1379.55 1862.43C1367.54 1899.98 1332.99 1927.77 1295.44 1938.28C1208.33 1961.56 1107.7 1924.76 1030.35 1883.46C934.972 1830.14 864.38 1740.77 819.321 1643.15C816.317 1635.64 826.831 1629.63 831.337 1637.14C847.107 1668.68 865.131 1699.47 885.407 1727.26C905.684 1755.79 928.964 1782.08 955.248 1805.36C1031.85 1874.45 1135.48 1917.25 1239.12 1917.25C1345.76 1914.25 1386.31 1857.93 1361.53 1754.29C1357.77 1737.77 1351.77 1720.5 1343.51 1706.23C1339 1700.22 1350.26 1693.46 1354.77 1700.97Z" fill="black"/>
<path d="M1645.4 799.044C1658.91 862.126 1665.67 913.193 1628.87 1081.41C1592.83 1248.88 1680.69 1283.43 1472.67 1551.53C1387.81 1661.17 1182.04 1630.38 1015.32 1516.98C959 1478.68 934.969 1380.3 892.914 1310.46C859.871 1255.64 844.851 1312.71 801.294 1265.4C741.967 1200.82 670.624 1070.9 705.92 841.099C762.994 468.613 1058.13 425.056 1276.66 466.36C1496.7 508.415 1609.35 633.077 1645.4 799.044Z" fill="#865439"/>
<path d="M838.844 1332.24C821.571 1302.95 799.042 1277.42 778.014 1250.38C757.738 1222.6 741.216 1191.81 727.698 1160.27C638.332 940.979 672.877 632.326 892.163 503.158C983.032 450.589 1092.67 437.822 1194.81 446.083C1413.34 461.854 1613.86 562.485 1661.17 793.787C1686.7 895.92 1652.16 1001.06 1632.63 1100.94C1623.62 1150.5 1631.13 1201.57 1630.38 1252.64C1629.63 1304.45 1615.36 1356.27 1595.83 1404.33C1583.82 1437.38 1562.79 1466.67 1541.01 1493.7C1504.96 1537.26 1468.92 1581.57 1423.11 1615.36C1412.59 1622.87 1393.82 1626.62 1381.05 1628.13C1345.76 1633.38 1311.21 1634.88 1275.91 1632.63C1137.73 1626.62 989.791 1559.79 934.218 1426.11C931.965 1420.86 939.475 1417.1 942.479 1421.61C1014.57 1535.76 1146.75 1592.08 1278.17 1599.59C1318.72 1601.84 1360.02 1601.09 1399.83 1592.83C1419.35 1583.07 1436.62 1565.79 1453.15 1550.02C1493.7 1509.47 1535 1465.91 1564.29 1416.35C1599.59 1349.51 1619.11 1276.67 1613.1 1200.82C1611.6 1167.02 1610.85 1131.73 1617.61 1097.93C1623.62 1064.14 1631.13 1031.85 1635.63 997.303C1640.14 964.26 1642.39 930.465 1642.39 897.422C1638.64 800.546 1607.1 700.665 1545.52 625.567C1409.59 456.597 1088.17 412.289 907.183 527.94C793.034 598.532 739.714 730.705 722.442 859.122C696.157 1013.07 703.667 1164.77 826.077 1276.67L862.124 1314.22C876.393 1330.74 850.859 1350.26 838.844 1332.24Z" fill="black"/>
<path d="M927.456 1093.43C927.456 1093.43 904.176 980.78 794.533 994.298C699.909 1006.31 666.866 1233.11 881.647 1296.19" fill="#865439"/>
<path d="M871.887 1197.81C854.614 1188.05 842.598 1171.53 841.847 1151.25C842.598 1136.23 844.851 1118.96 841.096 1103.94C838.843 1089.67 823.824 1085.92 812.559 1086.67C800.543 1088.92 793.034 1103.94 790.781 1115.96C790.781 1116.71 790.03 1118.96 790.03 1119.71C789.279 1123.47 783.271 1123.47 781.769 1119.71C772.006 1090.42 793.785 1058.13 825.326 1061.89C869.634 1064.89 875.641 1111.45 867.381 1146.75C862.875 1161.77 868.883 1175.29 877.143 1188.05L878.645 1190.3C882.4 1194.81 876.392 1200.82 871.887 1197.81Z" fill="black"/>
<path d="M1472.67 1013.82C1483.93 1067.14 1504.96 1116.71 1531.25 1163.27C1554.53 1220.34 1494.45 1274.41 1441.13 1272.16C1435.12 1272.16 1434.37 1263.9 1439.63 1262.4C1473.42 1251.88 1504.21 1229.36 1509.47 1194.81C1511.72 1184.3 1508.72 1175.28 1503.46 1166.27C1478.68 1119.71 1463.66 1066.39 1467.41 1013.82C1467.41 1010.07 1472.67 1010.07 1472.67 1013.82Z" fill="black"/>
<path d="M923.704 1094.18C906.432 1049.87 868.883 1007.82 818.567 1008.57C814.061 1007.82 806.552 1009.32 802.046 1009.32C789.279 1010.07 778.765 1014.57 769.003 1023.59C720.94 1071.65 729.201 1156.51 768.252 1209.83C781.769 1228.6 799.042 1245.13 818.567 1258.64C838.093 1272.16 859.871 1282.68 883.151 1291.69C888.408 1293.19 886.155 1301.45 880.899 1300.7C830.583 1290.18 782.52 1265.4 749.477 1224.1C698.41 1162.52 687.897 1059.63 748.726 999.555C762.244 987.54 781.018 978.528 799.793 978.528C805.801 978.528 814.812 977.026 820.82 978.528C852.361 980.03 882.401 995.8 901.926 1020.58C919.199 1041.61 928.961 1067.14 931.965 1092.68C931.965 1097.18 925.206 1098.68 923.704 1094.18Z" fill="black"/>
<path d="M1415.6 1347.26C1367.54 1393.07 1276.67 1356.27 1252.64 1300.7C1249.63 1293.94 1257.14 1287.93 1263.15 1290.94C1275.92 1297.69 1287.18 1304.45 1299.2 1309.71C1333.74 1325.48 1369.79 1338.25 1408.09 1334.49C1415.6 1332.99 1420.86 1342 1415.6 1347.26Z" fill="black"/>
<path d="M1227.85 1037.11C1227.85 1037.86 1227.85 1038.61 1227.85 1038.61L1227.1 1059.64C1226.35 1077.66 1211.33 1091.18 1193.31 1090.43C1175.28 1089.67 1161.77 1073.9 1163.27 1056.63L1164.02 1035.6C1164.02 1031.85 1165.52 1027.34 1167.02 1024.34L1227.1 1027.34C1227.1 1030.35 1227.85 1033.35 1227.85 1037.11Z" fill="black"/>
<path d="M1541.76 1053.63L1541.01 1073.15C1540.26 1089.67 1525.99 1102.44 1509.47 1101.69C1492.95 1100.94 1480.18 1086.67 1480.93 1070.15L1481.68 1050.62C1481.68 1046.87 1482.43 1043.11 1483.93 1040.11L1540.26 1042.36C1541.01 1046.12 1541.76 1049.87 1541.76 1053.63Z" fill="black"/>
<path d="M1302.95 934.221C1319.47 936.474 1332.24 919.201 1326.23 902.68C1323.22 893.668 1317.97 885.407 1309.71 880.15C1284.17 864.38 1188.8 862.878 1138.48 898.925C1093.42 931.968 1227.85 923.707 1302.95 934.221Z" fill="black"/>
<path d="M1510.97 942.482C1497.45 942.482 1489.19 925.209 1495.95 910.941C1499.7 903.431 1504.96 896.672 1512.47 892.917C1535.75 881.652 1598.08 888.411 1625.87 926.711C1650.65 960.505 1573.3 941.731 1510.97 942.482Z" fill="black"/>
<path d="M1275.91 1037.1L1152 1034.85C1136.98 1034.1 1137.73 1011.57 1152.75 1012.32L1276.66 1021.33C1287.17 1022.08 1286.42 1037.1 1275.91 1037.1Z" fill="black"/>
<path d="M1573.3 1049.87L1481.68 1051.37C1466.66 1051.37 1465.91 1029.59 1480.93 1028.84C1481.68 1028.84 1481.68 1028.84 1482.44 1028.84L1574.06 1038.61C1580.81 1039.36 1580.06 1049.12 1573.3 1049.87Z" fill="black"/>
<path d="M1739.32 1462.16C1652.2 1239.87 1663.47 1170.03 1684.5 983.036C1726.55 615.056 1593.63 525.689 1523.79 490.393C1226.4 339.446 885.452 413.042 757.035 620.313C676.68 749.481 673.676 853.117 628.617 1001.81C551.266 1256.39 365.023 1369.04 422.849 1629.63C502.452 1886.47 1011.62 1999.86 1001.85 1732.51C995.847 1571.05 874.939 1549.28 872.686 1326.23C872.686 1311.21 873.437 1296.95 874.939 1283.43C667.668 1218.09 700.711 995.803 794.584 983.787C859.919 975.526 894.464 1012.32 911.737 1043.11C913.239 1047.62 915.492 1051.38 917.745 1055.88C932.764 1081.41 1110 1033.35 1245.17 949.993C1324.03 901.179 1447.19 817.07 1480.98 724.699C1482.48 720.944 1506.51 836.595 1619.16 986.791C1613.9 1076.16 1636.43 1299.2 1522.28 1483.19C1439.68 1617.61 1336.04 1629.63 1336.04 1629.63C1336.04 1719 1494.5 1714.49 1560.58 1729.51C1643.19 1747.53 1725.05 1797.1 1725.05 1797.1C1725.05 1797.1 1819.67 1667.18 1739.32 1462.16Z" fill="#171212"/>
<path d="M1062.64 1239.12C1083.66 1227.85 1103.94 1215.84 1127.22 1209.83C1129.47 1209.83 1130.98 1209.08 1135.48 1210.58C1151.25 1222.6 1105.44 1252.64 1097.18 1260.14C1099.43 1257.14 1098.68 1251.88 1094.93 1250.38C1094.18 1250.38 1094.18 1249.63 1093.43 1249.63C1091.93 1249.63 1091.92 1249.63 1091.92 1249.63C1110.7 1242.87 1129.47 1235.36 1147.5 1226.35C1158.01 1221.85 1172.28 1212.08 1183.54 1211.33C1188.05 1211.33 1193.31 1215.84 1192.56 1220.34C1191.81 1226.35 1190.3 1228.6 1188.8 1232.36C1187.3 1235.36 1184.3 1239.87 1183.54 1242.87C1183.54 1243.62 1182.79 1242.12 1182.79 1242.12C1182.79 1242.87 1187.3 1242.87 1188.05 1242.12C1200.07 1240.62 1212.83 1236.11 1224.85 1231.61C1227.1 1230.86 1228.6 1233.86 1226.35 1235.36C1213.58 1243.62 1200.07 1252.64 1183.54 1254.14C1173.03 1254.89 1167.77 1245.13 1171.53 1236.11C1173.03 1230.86 1176.79 1224.85 1178.29 1220.34C1178.29 1221.85 1179.79 1224.1 1181.29 1224.85C1182.79 1225.6 1183.54 1224.85 1182.79 1225.6C1175.28 1227.85 1160.26 1236.11 1153.51 1239.12C1133.98 1248.13 1115.21 1256.39 1094.18 1262.4C1092.68 1262.4 1092.68 1263.15 1090.42 1262.4C1084.42 1261.65 1082.91 1254.14 1087.42 1250.38C1096.43 1242.87 1106.94 1236.86 1115.21 1229.35C1119.71 1225.6 1124.97 1220.34 1127.97 1215.84C1127.97 1216.59 1128.72 1218.09 1129.47 1218.84C1122.72 1219.59 1109.2 1223.35 1100.94 1227.1C1088.92 1231.61 1076.15 1236.86 1064.14 1242.12C1062.64 1243.62 1060.38 1239.87 1062.64 1239.12Z" fill="#FFBCBC"/>
<path d="M1549.27 1239.12C1556.03 1231.61 1584.57 1195.56 1592.08 1214.34C1592.08 1215.84 1592.08 1217.34 1592.08 1218.09C1589.07 1233.11 1579.31 1245.88 1571.8 1258.64C1573.3 1254.89 1570.3 1249.63 1566.54 1248.88C1565.04 1248.88 1564.29 1248.88 1563.54 1248.88C1562.79 1248.88 1563.54 1248.88 1564.29 1248.13C1579.31 1238.37 1590.58 1226.35 1605.6 1215.84C1608.6 1214.34 1612.35 1212.08 1616.11 1214.34C1619.86 1217.34 1619.11 1221.84 1617.61 1224.85C1616.11 1228.6 1614.61 1231.61 1613.11 1235.36C1612.35 1236.11 1611.6 1236.86 1610.1 1236.11C1609.35 1236.11 1609.35 1235.36 1609.35 1234.61C1609.35 1233.11 1609.35 1223.35 1609.35 1221.84C1609.35 1221.09 1608.6 1220.34 1609.35 1221.84C1609.35 1222.6 1610.85 1224.1 1612.35 1224.1C1613.11 1224.1 1614.61 1224.1 1614.61 1224.1C1601.84 1239.12 1586.82 1253.39 1569.55 1263.15C1564.29 1265.4 1558.28 1260.9 1559.03 1254.89C1559.03 1254.14 1559.79 1252.64 1560.54 1251.88C1565.79 1244.37 1571.8 1236.86 1576.31 1229.35C1578.56 1225.6 1581.56 1220.34 1582.32 1216.59C1582.32 1218.09 1585.32 1220.34 1586.07 1219.59C1574.05 1224.1 1563.54 1233.86 1553.03 1241.37C1550.02 1243.62 1547.77 1240.62 1549.27 1239.12Z" fill="#FFBCBC"/>
<path d="M2164.33 633.076C2620.17 1510.97 1818.87 2501.52 863.627 2259.7C434.818 2153.06 90.1176 1781.33 18.7745 1345.01C-62.3314 910.939 133.674 444.58 500.153 199.01C1002.56 -146.441 1698.72 -31.5413 2058.44 462.604C2060.69 464.857 2059.94 468.612 2056.94 470.865C2054.68 473.118 2050.93 472.367 2048.67 469.363C1999.11 405.529 1942.79 347.704 1881.21 295.886C1779.82 209.523 1661.17 141.935 1535.75 96.1254C897.422 -135.177 196.757 249.325 57.0745 916.947C-100.631 1664.92 535.449 2353.57 1293.94 2250.69C1878.95 2177.09 2313.77 1637.14 2265.71 1049.87C2255.19 907.935 2217.65 767.502 2155.31 638.333C2153.81 636.08 2155.31 633.076 2157.57 631.574C2159.82 630.072 2162.82 630.823 2164.33 633.076Z" fill="black"/>
</g>
</svg>