<?xml version="1.0" standalone="no"?>
<!DOCTYPE svg PUBLIC "-//W3C//DTD SVG 1.1//EN" "http://www.w3.org/Graphics/SVG/1.1/DTD/svg11.dtd">
<svg xmlns="http://www.w3.org/2000/svg" width="2390" height="2390" viewBox="0 0 2390 2390" fill="none">
<mask id="mask0_2610_3607" style="mask-type:alpha" maskUnits="userSpaceOnUse" x="0" y="0" width="2383" height="2383">
<circle cx="1191.08" cy="1191.08" r="1191.08" fill="#D9D9D9"/>
</mask>
<g mask="url(#mask0_2610_3607)">
<path d="M1844.05 2174.43C1838.58 2178.34 1832.33 2182.24 1826.87 2186.15C1820.62 2190.05 1815.15 2193.96 1808.9 2197.08C1803.44 2200.21 1798.75 2203.33 1793.28 2206.45C1792.5 2207.24 1791.72 2207.24 1790.94 2208.02C1772.98 2218.95 1754.23 2229.11 1735.49 2238.48C1730.02 2241.6 1723.77 2244.73 1718.3 2247.07C1718.3 2247.07 1717.52 2247.85 1716.74 2247.85C1710.49 2250.97 1704.24 2254.1 1697.99 2257.22C1685.5 2263.47 1672.22 2268.94 1659.72 2274.41C1653.48 2277.53 1646.45 2279.87 1640.2 2282.22C1633.95 2284.56 1626.92 2287.68 1620.67 2290.03C1614.42 2292.37 1607.39 2295.49 1601.15 2297.84C1601.15 2297.84 1601.15 2297.84 1600.36 2297.84C1594.12 2300.18 1587.09 2302.52 1580.84 2304.87C1566.78 2309.55 1551.94 2314.24 1537.88 2318.93C1533.19 2320.49 1527.73 2322.05 1523.04 2323.61C1508.2 2328.3 1493.36 2332.2 1478.52 2335.33C1473.05 2336.89 1467.59 2337.67 1461.34 2339.23C1447.28 2342.36 1432.44 2345.48 1418.38 2348.61C1415.26 2349.39 1412.91 2349.39 1409.79 2350.17C1405.1 2350.95 1399.64 2351.73 1394.95 2352.51C1387.92 2353.29 1381.67 2354.85 1374.64 2355.63C1371.52 2356.42 1368.39 2356.42 1365.27 2357.2C1361.36 2357.98 1356.68 2358.76 1351.99 2358.76C1339.49 2360.32 1326.22 2361.88 1313.72 2363.44C1309.82 2364.23 1305.13 2364.23 1301.22 2365.01H1300.44C1294.98 2365.79 1289.51 2365.79 1284.04 2366.57C1278.57 2367.35 1273.11 2367.35 1267.64 2367.35C1264.51 2367.35 1260.61 2368.13 1257.49 2368.13C1251.24 2368.13 1245.77 2368.91 1240.3 2368.91C1232.49 2368.91 1225.46 2369.69 1217.65 2369.69C1209.84 2369.69 1202.81 2369.69 1195 2369.69C1189.53 2369.69 1184.07 2369.69 1178.6 2369.69C848.998 2365.01 552.982 2225.2 341.318 2003.38C341.318 2003.38 341.318 2002.6 340.537 2002.6C317.106 1981.51 337.413 1869.04 431.92 1797.97C550.639 1708.15 834.939 1651.91 834.939 1651.91C834.939 1651.91 945.067 1633.95 1353.55 1719.08C1592.55 1769.07 1774.54 1841.71 1876.07 2038.53C1897.16 2079.14 1918.25 2141.63 1844.05 2174.43Z" fill="white"/>
<path d="M1355.9 1710.49C1505.86 1740.95 1665.97 1773.76 1789.38 1872.95C1830.77 1906.53 1858.11 1955.74 1880.76 2003.38C1891.69 2026.81 1902.63 2051.03 1911.22 2076.8C1915.91 2093.98 1922.94 2113.51 1919.03 2133.82C1918.25 2139.29 1913.56 2146.31 1909.66 2150.22C1891.69 2168.18 1872.17 2179.12 1852.64 2193.18C1737.83 2272.84 1605.83 2329.08 1469.15 2358.76C1164.54 2425.15 834.939 2373.6 567.041 2213.48C478.002 2159.59 395.992 2093.98 325.698 2016.66C317.887 2007.29 317.887 1991.67 317.887 1981.51C318.668 1958.08 324.917 1935.43 332.727 1914.34C351.472 1865.92 375.685 1817.49 417.08 1783.91C446.76 1763.6 478.783 1746.42 511.586 1732.36C614.685 1688.62 723.25 1658.16 834.939 1645.66C844.312 1644.88 845.874 1658.16 836.501 1659.72C729.498 1681.59 623.276 1714.4 524.083 1758.92C488.155 1776.88 449.884 1792.5 420.985 1820.62C393.649 1850.3 374.122 1887.01 358.502 1924.5C348.348 1947.15 341.318 1983.08 344.443 2001.04C393.649 2059.62 451.446 2111.17 513.93 2155.69C856.028 2394.69 1375.42 2410.31 1739.39 2211.14C1772.19 2193.18 1804.22 2172.87 1834.68 2151.78C1849.52 2141.63 1865.14 2133.04 1876.85 2121.32C1877.64 2120.54 1876.85 2121.32 1876.85 2122.1C1876.85 2122.88 1876.07 2123.66 1876.07 2123.66C1876.85 2114.29 1873.73 2101.79 1869.82 2089.3C1855.77 2044 1833.12 1996.35 1808.9 1954.96C1770.63 1893.26 1705.81 1854.2 1640.2 1822.96C1594.9 1801.87 1547.25 1785.47 1498.83 1769.85C1450.4 1754.23 1401.2 1740.95 1351.99 1729.24C1339.5 1726.11 1343.4 1708.15 1355.9 1710.49Z" fill="black"/>
<path d="M1951.05 2285.34C1936.21 2169.74 1870.6 1975.26 1830.77 1922.93C1787.03 1865.92 1769.07 1847.95 1623.01 1798.75C1615.2 1759.69 1586.3 1661.28 1551.93 1619.89C1499.6 1541 1356.67 1523.04 1313.72 1532.41C1313.72 1532.41 1082.53 1451.18 816.19 1451.18C731.837 1469.93 634.206 1508.2 581.095 1588.65C545.167 1641.76 585.781 1658.94 567.817 1707.36C563.131 1719.86 453.785 1782.35 409.265 1819.84C388.958 1836.24 366.307 1877.63 350.687 1931.52C319.445 2041.65 353.03 2193.96 313.977 2326.73C238.997 2582.92 86.693 2659.46 86.693 2659.46H2104.92C2103.35 2658.68 1983.07 2529.02 1951.05 2285.34Z" fill="#0C9463"/>
<path d="M1939.34 2286.9C1923.72 2184.59 1892.47 2083.05 1852.64 1987.76C1833.11 1941.68 1803.43 1897.16 1762.04 1869.82C1740.95 1856.55 1717.52 1846.39 1693.31 1836.24C1669.09 1826.87 1644.1 1818.28 1619.89 1809.68C1615.98 1808.12 1612.86 1805 1612.08 1801.09C1608.95 1785.47 1605.05 1770.63 1600.36 1755.01C1580.06 1691.75 1558.19 1621.45 1498.83 1584.74C1453.53 1557.41 1399.63 1544.13 1347.3 1541.79C1337.15 1541.79 1326.22 1541.79 1316.84 1543.35H1313.72C1312.94 1543.35 1311.38 1543.35 1310.59 1542.57C1273.1 1524.6 1231.71 1513.67 1191.09 1502.73C1069.25 1474.62 941.941 1462.9 816.974 1462.12C740.431 1480.08 633.428 1522.26 586.565 1600.36C578.755 1612.86 574.85 1625.36 576.412 1639.42C577.974 1655.04 583.441 1672.22 579.536 1688.62C577.974 1695.65 576.412 1703.46 573.288 1709.71C567.039 1718.3 556.886 1723.77 549.075 1729.24C508.461 1755.79 467.065 1779.22 428.013 1806.56C414.735 1815.93 402.239 1824.52 392.866 1837.8C365.529 1876.85 349.127 1923.72 342.098 1970.58C329.601 2065.87 342.098 2162.72 329.601 2258C315.542 2353.29 278.833 2445.46 227.284 2526.68C191.356 2581.36 147.618 2632.13 92.1634 2667.27L86.6961 2645.4H2104.92L2096.33 2664.93C2072.9 2638.37 2054.15 2609.47 2036.97 2579.01C1983.86 2489.97 1952.61 2389.22 1939.34 2286.9ZM1962.77 2283.78C1971.36 2350.17 1987.76 2415.78 2012.75 2478.26C2037.75 2539.96 2068.99 2600.1 2112.73 2650.87C2118.98 2657.9 2113.51 2671.18 2104.14 2670.4H85.915C79.6667 2670.4 74.1993 2664.93 74.1993 2658.68C74.1993 2653.99 76.5425 2650.09 80.4477 2648.53C92.9444 2641.5 105.441 2631.34 117.157 2621.19C219.474 2529.03 283.52 2392.34 304.608 2256.44C322.572 2129.13 288.987 1991.67 346.003 1870.61C359.281 1842.49 375.683 1812.81 402.239 1794.84C450.663 1758.92 503.774 1732.36 551.418 1697.21C552.199 1697.21 552.199 1696.43 552.199 1696.43C551.418 1697.21 550.637 1698.78 550.637 1699.56C555.324 1688.62 556.886 1679.25 555.323 1666.75C552.98 1651.13 549.075 1630.04 554.542 1613.64C556.886 1604.27 561.572 1595.68 566.258 1588.65C622.493 1504.3 721.686 1466.8 816.193 1445.72C842.748 1446.5 870.085 1441.81 896.641 1441.81C933.35 1441.81 970.84 1447.28 1007.55 1451.97C1112.99 1468.37 1214.53 1496.48 1318.41 1519.14L1311.38 1518.35C1335.59 1513.67 1358.24 1516.01 1381.67 1519.14C1531.63 1541.79 1582.4 1607.39 1623.01 1747.2C1627.7 1762.82 1631.6 1778.44 1635.51 1794.84L1627.7 1785.47C1702.68 1812.03 1787.03 1836.24 1834.68 1905.75C1851.86 1926.84 1864.36 1951.83 1875.29 1976.83C1915.12 2076.8 1946.37 2177.56 1962.77 2283.78Z" fill="#0C9463"/>
<path d="M720.126 1771.41C777.924 1894.82 867.744 1999.48 974.747 2082.27C978.652 2085.39 974.747 2091.64 970.061 2089.3C874.773 2044 794.325 1966.68 746.682 1872.95C731.061 1841.71 717.783 1808.12 713.097 1772.98C711.535 1769.07 717.783 1767.51 720.126 1771.41Z" fill="black"/>
<path d="M1634.73 1797.19C1637.07 1927.62 1583.96 2061.18 1482.43 2145.53C1480.08 2147.88 1476.96 2147.1 1474.62 2144.75C1472.27 2142.41 1473.05 2139.29 1475.4 2136.94C1498.05 2115.07 1520.7 2092.42 1537.88 2065.87C1573.81 2014.32 1595.68 1953.4 1605.83 1891.69C1610.52 1861.23 1613.64 1828.43 1611.3 1797.97C1610.52 1783.13 1633.95 1781.57 1634.73 1797.19Z" fill="black"/>
<path d="M1174.69 2107.26C1156.73 2170.53 1141.89 2239.26 1150.48 2304.87C1152.82 2319.71 1130.17 2323.61 1127.05 2307.99C1123.14 2272.06 1127.83 2236.92 1134.08 2202.55C1141.11 2168.18 1149.7 2135.38 1161.42 2102.58C1164.54 2094.77 1177.82 2098.67 1174.69 2107.26Z" fill="black"/>
<path d="M1423.07 2095.55C1448.84 2151 1466.8 2208.8 1480.86 2267.38C1482.42 2273.62 1478.52 2279.87 1472.27 2281.44C1466.02 2283 1459.77 2279.09 1458.21 2272.84C1450.4 2229.11 1440.25 2185.37 1426.19 2142.41C1421.5 2128.35 1416.82 2114.29 1411.35 2100.23C1408.23 2093.2 1419.16 2087.74 1423.07 2095.55Z" fill="black"/>
<path d="M584.222 1704.24C613.121 1862.01 724.029 1995.57 857.588 2080.71C902.889 2109.61 951.314 2134.6 1001.3 2154.91C1004.42 2156.47 1005.99 2159.59 1004.42 2162.72C1003.64 2165.84 999.738 2167.4 997.395 2165.84C945.846 2147.1 895.859 2123.66 848.997 2095.55C753.709 2039.31 670.137 1961.21 613.902 1865.92C585.003 1816.71 562.353 1765.16 551.418 1708.93C549.856 1699.56 556.105 1690.96 565.477 1689.4C574.069 1687.06 583.441 1694.09 584.222 1704.24Z" fill="black"/>
<path d="M1127.83 2322.05C1105.96 2319.71 1090.34 2299.4 1095.02 2277.53L1103.61 2236.14C1106.74 2219.73 1122.36 2208.02 1138.76 2210.36C1155.16 2211.92 1168.44 2225.98 1168.44 2243.17V2285.34C1169.22 2307.21 1150.48 2324.39 1127.83 2322.05Z" fill="black"/>
<path d="M1487.89 2293.15C1466.8 2300.96 1444.15 2288.47 1438.69 2266.6L1428.53 2225.2C1424.63 2208.8 1433.22 2192.4 1449.62 2186.15C1465.24 2180.68 1483.21 2187.71 1490.24 2202.55L1508.98 2240.82C1518.35 2261.91 1508.98 2286.12 1487.89 2293.15Z" fill="black"/>
<path d="M1848.74 2269.72C1848.74 2269.72 1892.47 2514.97 1875.29 2658.68" stroke="black" stroke-width="5.1257" stroke-miterlimit="10" stroke-linecap="round" stroke-linejoin="round"/>
<path d="M828.687 1676.13C817.752 1644.88 813.066 1612.86 815.409 1580.06C815.409 1576.93 817.752 1575.37 820.877 1575.37C823.22 1575.37 825.563 1577.71 825.563 1580.06C827.906 1609.74 836.498 1640.2 850.556 1665.97C857.586 1681.59 834.154 1691.75 828.687 1676.13Z" fill="black"/>
<path d="M1356.67 1717.52C1334.8 1668.32 1280.91 1643.32 1233.27 1626.14C1203.59 1616.77 1170.78 1609.74 1139.54 1605.05C1063.78 1593.34 956.778 1575.37 881.017 1567.56C880.236 1567.56 880.236 1566 881.017 1566C902.886 1563.66 924.755 1563.66 946.624 1563.66C1012.23 1565.22 1077.84 1572.25 1142.67 1582.4C1207.49 1592.55 1277.01 1612.08 1326.21 1658.94C1341.83 1675.34 1355.89 1694.09 1359.8 1716.74C1360.58 1719.08 1357.45 1719.86 1356.67 1717.52Z" fill="black"/>
<path d="M1429.31 1918.25C1412.91 1998.7 1306.68 2047.12 1127.83 1974.48C941.936 1899.5 861.488 1720.64 841.181 1667.53C951.309 1461.34 874.766 1318.41 874.766 1318.41C1128.61 1296.54 1350.42 1593.33 1350.42 1593.33L1384.79 1740.17C1387.91 1752.67 1394.16 1763.6 1403.53 1771.41C1419.94 1800.31 1439.46 1866.7 1429.31 1918.25Z" fill="#FFE0C5"/>
<path d="M837.279 1669.88C852.119 1647.23 861.492 1620.67 867.74 1594.9C879.456 1541 883.361 1486.33 884.142 1431.66V1411.35C881.799 1391.04 874.77 1369.95 866.959 1351.21C856.806 1326.22 893.515 1310.59 905.23 1335.59C906.793 1338.71 906.793 1344.18 906.793 1347.3C909.136 1453.53 913.822 1590.21 846.652 1678.47C841.966 1683.15 832.593 1676.12 837.279 1669.88Z" fill="black"/>
<path d="M1359.02 1591.77C1370.73 1598.8 1374.64 1608.17 1376.2 1617.55C1380.88 1636.29 1379.32 1656.6 1384.01 1676.13C1387.91 1694.87 1399.63 1712.83 1402.75 1732.36C1406.66 1752.67 1418.37 1795.63 1423.06 1816.71C1424.62 1821.4 1421.5 1826.87 1416.03 1827.65C1412.91 1828.43 1410.56 1827.65 1408.22 1826.09C1398.07 1817.5 1393.38 1808.9 1387.13 1797.97C1376.98 1779.22 1369.95 1762.04 1363.7 1740.95C1358.23 1722.21 1360.58 1701.9 1355.89 1682.37C1351.99 1663.63 1341.05 1645.66 1337.15 1626.14C1334.8 1616.77 1334.02 1606.61 1341.05 1594.9C1345.74 1590.21 1353.55 1588.65 1359.02 1591.77Z" fill="black"/>
<path d="M1415.25 1797.97C1266.07 1790.16 1144.23 1743.29 1025.51 1531.63C1125.49 1619.89 1243.42 1653.47 1367.61 1669.09L1384.01 1740.95C1387.14 1753.45 1405.88 1790.16 1415.25 1797.97Z" fill="black"/>
<path d="M1409.01 1769.07C1435.56 1819.06 1451.18 1881.54 1434.78 1936.99C1422.29 1976.05 1386.36 2004.94 1347.31 2015.88C1256.7 2040.09 1152.04 2001.82 1071.6 1958.86C972.403 1903.41 898.985 1810.46 852.122 1708.93C848.998 1701.12 859.933 1694.87 864.619 1702.68C881.021 1735.48 899.766 1767.51 920.854 1796.41C941.943 1826.09 966.155 1853.42 993.492 1877.63C1073.16 1949.49 1180.94 1994.01 1288.73 1994.01C1399.64 1990.89 1441.81 1932.31 1416.04 1824.52C1412.13 1807.34 1405.88 1789.38 1397.29 1774.54C1392.61 1768.29 1404.32 1761.26 1409.01 1769.07Z" fill="black"/>
<path d="M1711.27 831.034C1725.33 896.642 1732.36 949.753 1694.09 1124.71C1656.6 1298.88 1747.98 1334.81 1531.63 1613.64C1443.37 1727.67 1229.36 1695.65 1055.97 1577.71C997.394 1537.88 972.4 1435.56 928.662 1362.93C894.296 1305.91 878.675 1365.27 833.374 1316.06C771.672 1248.89 697.472 1113.77 734.181 874.772C793.541 487.374 1100.49 442.073 1327.78 485.03C1556.62 528.769 1673.78 658.423 1711.27 831.034Z" fill="#FFE0C5"/>
<path d="M872.427 1385.58C854.462 1355.12 831.031 1328.56 809.162 1300.44C788.074 1271.54 770.891 1239.52 756.832 1206.72C663.887 978.651 699.815 657.641 927.881 523.302C1022.39 468.628 1136.42 455.351 1242.64 463.942C1469.93 480.344 1678.47 585.004 1727.67 825.566C1754.23 931.788 1718.3 1041.13 1697.99 1145.01C1688.62 1196.56 1696.43 1249.67 1695.65 1302.79C1694.87 1356.68 1680.03 1410.57 1659.72 1460.56C1647.22 1494.92 1625.35 1525.38 1602.7 1553.5C1565.21 1598.8 1527.72 1644.88 1480.08 1680.03C1469.15 1687.84 1449.62 1691.75 1436.34 1693.31C1399.63 1698.78 1363.7 1700.34 1327 1697.99C1183.28 1691.75 1029.42 1622.23 971.619 1483.21C969.276 1477.74 977.087 1473.83 980.211 1478.52C1055.19 1597.24 1192.66 1655.82 1329.34 1663.63C1371.51 1665.97 1414.47 1665.19 1455.87 1656.6C1476.17 1646.45 1494.14 1628.48 1511.32 1612.08C1553.5 1569.9 1596.46 1524.6 1626.92 1473.05C1663.63 1403.54 1683.93 1327.78 1677.68 1248.89C1676.12 1213.75 1675.34 1177.04 1682.37 1141.89C1688.62 1106.74 1696.43 1073.16 1701.12 1037.23C1705.8 1002.86 1708.15 967.717 1708.15 933.351C1704.24 832.596 1671.44 728.717 1607.39 650.612C1466.02 474.877 1131.73 428.795 943.502 549.076C824.783 622.494 769.328 759.958 751.364 893.517C724.028 1053.63 731.838 1211.4 859.149 1327.78L896.639 1366.83C911.479 1384.01 884.923 1404.32 872.427 1385.58Z" fill="black"/>
<path d="M964.587 1137.2C964.587 1137.2 940.375 1020.05 826.342 1034.1C727.93 1046.6 693.564 1282.48 916.943 1348.09" fill="#FFE0C5"/>
<path d="M906.793 1245.77C888.829 1235.62 876.332 1218.43 875.551 1197.34C876.332 1181.72 878.675 1163.76 874.77 1148.14C872.427 1133.3 856.806 1129.39 845.09 1130.17C832.593 1132.52 824.783 1148.14 822.44 1160.64C822.44 1161.42 821.659 1163.76 821.659 1164.54C820.878 1168.45 814.629 1168.45 813.067 1164.54C802.913 1134.08 825.564 1100.49 858.368 1104.4C904.449 1107.52 910.698 1155.95 902.106 1192.66C897.42 1208.28 903.668 1222.34 912.26 1235.62L913.822 1237.96C917.727 1242.65 911.479 1248.89 906.793 1245.77Z" fill="black"/>
<path d="M1531.63 1054.41C1543.34 1109.87 1565.21 1161.42 1592.55 1209.84C1616.76 1269.2 1554.28 1325.44 1498.82 1323.09C1492.57 1323.09 1491.79 1314.5 1497.26 1312.94C1532.41 1302 1564.43 1278.57 1569.9 1242.64C1572.24 1231.71 1569.12 1222.34 1563.65 1212.96C1537.88 1164.54 1522.25 1109.09 1526.16 1054.41C1526.16 1050.51 1531.63 1050.51 1531.63 1054.41Z" fill="black"/>
<path d="M960.685 1137.99C942.721 1091.9 903.668 1048.16 851.338 1048.95C846.652 1048.16 838.842 1049.73 834.155 1049.73C820.878 1050.51 809.943 1055.19 799.789 1064.57C749.802 1114.55 758.394 1202.81 799.008 1258.27C813.067 1277.79 831.031 1294.98 851.338 1309.03C871.646 1323.09 894.296 1334.03 918.508 1343.4C923.976 1344.96 921.632 1353.55 916.165 1352.77C863.835 1341.84 813.848 1316.06 779.482 1273.11C726.371 1209.06 715.436 1102.06 778.701 1039.57C792.76 1027.08 812.286 1017.7 831.812 1017.7C838.061 1017.7 847.433 1016.14 853.681 1017.7C886.485 1019.27 917.727 1035.67 938.034 1061.44C955.998 1083.31 966.152 1109.87 969.276 1136.42C969.276 1141.11 962.247 1142.67 960.685 1137.99Z" fill="black"/>
<path d="M1475.39 1417.6C1424.62 1405.1 1372.29 1416.04 1320.75 1419.16C1315.28 1419.16 1313.72 1412.13 1318.4 1409.79C1360.58 1384.79 1434.78 1365.27 1475.39 1400.42C1478.52 1404.32 1487.89 1412.91 1480.86 1417.6C1479.3 1418.38 1476.95 1418.38 1475.39 1417.6Z" fill="black"/>
<path d="M1355.11 971.621C1372.29 973.964 1385.57 956 1379.32 938.817C1376.2 929.445 1370.73 920.853 1362.14 915.386C1335.58 898.984 1236.39 897.422 1184.06 934.912C1137.2 969.278 1277.01 960.687 1355.11 971.621Z" fill="black"/>
<path d="M1571.46 980.213C1557.4 980.213 1548.81 962.249 1555.84 947.409C1559.75 939.599 1565.21 932.569 1573.02 928.664C1597.24 916.949 1662.06 923.978 1690.96 963.811C1716.74 998.958 1636.29 979.432 1571.46 980.213Z" fill="black"/>
<path d="M1326.21 1072.38C1286.38 1055.19 1241.08 1059.88 1199.68 1069.25C1195 1070.81 1191.87 1064.57 1195.78 1061.44C1231.71 1031.76 1299.66 1027.86 1328.56 1068.47C1330.9 1070.03 1329.34 1073.16 1326.21 1072.38Z" fill="black"/>
<path d="M1633.16 1088.78C1614.42 1075.5 1587.08 1077.84 1565.21 1080.19C1557.4 1080.97 1549.59 1082.53 1541 1084.87C1538.66 1085.65 1536.31 1081.75 1537.88 1080.19L1539.44 1078.62C1558.96 1058.32 1589.42 1053.63 1615.98 1063.78C1625.35 1067.69 1634.73 1073.16 1639.41 1084.09C1641.75 1088 1636.29 1091.9 1633.16 1088.78Z" fill="black"/>
<path d="M1746.63 576.358C1760.69 543.554 1760.69 507.626 1737.25 476.384C1669.3 386.564 1459.2 454.515 1342.04 417.025C1166.31 360.008 948.398 352.979 820.306 563.861C788.283 616.972 772.662 631.812 727.362 673.989C680.499 717.727 643.79 798.175 640.666 908.302C633.636 1129.34 807.028 1321.48 807.028 1321.48C815.62 1333.19 823.43 1343.34 830.46 1351.94C892.943 1426.92 912.47 1571.41 893.724 1343.34C699.244 1268.36 734.391 1050.45 828.898 1038.74C928.872 1026.24 960.113 1115.28 965.581 1137.15C1032.75 1094.19 1008.54 1002.81 1000.73 917.675C1053.06 894.244 1097.58 838.008 1121.01 787.24C1146.78 823.168 1178.03 851.286 1215.52 854.41C1255.35 858.315 1278.78 824.73 1286.59 777.087C1338.14 845.038 1429.52 929.391 1573.23 945.793C1641.97 953.603 1698.98 924.704 1737.25 877.061C1747.41 878.623 1756.78 879.404 1766.15 878.623C1866.91 868.469 1979.38 664.616 1746.63 576.358Z" fill="#4A3C15"/>
<path d="M1587.08 1423.06C1530.07 1432.44 1501.17 1399.63 1490.24 1384.01C1470.71 1423.06 1423.85 1456.65 1330.12 1440.25C1208.28 1419.16 1206.72 1309.03 1206.72 1309.03C1244.99 1349.65 1294.19 1319.19 1362.14 1294.19C1442.59 1265.29 1479.3 1292.63 1491.8 1308.25C1493.36 1306.69 1510.54 1326.22 1545.69 1289.51C1553.5 1281.7 1567.56 1295.75 1579.27 1305.91C1618.33 1341.84 1637.07 1346.52 1651.13 1325.43C1651.13 1326.22 1654.25 1412.13 1587.08 1423.06Z" fill="#4A3C15"/>
<path d="M1583.96 1531.63C1569.12 1551.94 1561.31 1557.41 1548.03 1556.63C1533.19 1555.84 1520.69 1532.41 1476.96 1531.63C1441.03 1530.85 1382.45 1550.38 1308.25 1566C1221.55 1583.96 1068.47 1512.11 1034.88 1404.32C1025.51 1373.86 1017.7 1342.62 1009.89 1316.06C1007.55 1308.25 997.394 1305.91 992.708 1312.16C987.24 1319.19 981.773 1325.44 975.525 1330.9C967.714 1338.71 963.028 1349.65 963.028 1360.58C963.028 1374.64 963.809 1387.14 963.809 1395.73C969.276 1464.46 977.868 1486.33 1009.11 1530.85C1040.35 1575.37 1149.7 1695.65 1291.85 1706.59C1434.78 1716.74 1513.67 1705.02 1593.33 1613.64C1665.19 1530.85 1667.53 1359.02 1667.53 1359.02C1629.26 1474.62 1603.49 1504.3 1583.96 1531.63Z" fill="#4A3C15"/>
<path d="M1366.84 1230.93C1330.91 1231.71 1220 1232.49 1185.63 1233.27C1126.27 1234.05 1081.75 1182.5 1087.22 1123.92C1088 1104.4 1087.22 1077.06 1088 1057.54C1089.56 1006.77 1134.87 963.81 1185.63 965.372L1317.63 966.934C1327.78 966.934 1356.68 967.716 1366.84 967.716C1409.01 966.934 1448.85 998.176 1458.22 1039.57C1461.34 1051.29 1460.56 1063.78 1460.56 1073.94V1140.33C1459.78 1189.53 1416.04 1231.71 1366.84 1230.93ZM1366.84 1213.74C1407.45 1215.31 1444.94 1180.16 1445.72 1139.55C1446.5 1118.46 1445.72 1095.81 1445.72 1073.94C1450.41 1026.29 1414.48 982.555 1366.05 984.117C1332.47 984.899 1220 985.68 1184.85 986.461C1142.68 986.461 1106.75 1024.73 1109.87 1066.91C1109.87 1072.38 1109.87 1086.43 1109.87 1091.9C1110.65 1109.08 1108.31 1138.76 1112.22 1154.39C1120.03 1187.19 1151.27 1212.18 1184.85 1212.18H1201.25C1223.9 1212.18 1343.4 1213.74 1366.84 1213.74Z" fill="black"/>
<path d="M1681.59 988.023L1619.89 988.804C1602.71 989.585 1582.4 986.461 1567.56 996.614C1553.5 1005.99 1547.25 1023.17 1548.04 1039.57C1548.04 1059.88 1548.04 1080.97 1547.25 1101.27L1546.47 1098.15C1557.41 1136.42 1572.25 1173.13 1594.9 1205.15L1587.09 1200.47C1593.34 1202.03 1604.27 1202.03 1610.52 1202.03C1633.95 1202.81 1661.29 1204.37 1684.72 1204.37C1706.59 1204.37 1727.68 1187.97 1732.36 1166.1C1733.92 1159.85 1733.92 1148.92 1733.92 1142.67C1733.92 1109.09 1734.71 1076.28 1733.14 1042.7C1734.71 1013.02 1712.06 986.461 1681.59 988.023ZM1681.59 964.592C1722.99 964.592 1751.89 1004.42 1744.86 1043.48C1743.3 1077.06 1744.08 1109.87 1744.08 1143.45C1747.98 1182.5 1724.55 1217.65 1683.94 1220.77C1666.75 1221.56 1650.35 1221.56 1633.95 1222.34C1625.36 1222.34 1604.27 1223.9 1596.46 1223.9C1592.56 1224.68 1586.31 1223.9 1582.4 1223.9C1579.28 1223.9 1576.15 1221.56 1574.59 1219.21C1550.38 1183.28 1533.2 1143.45 1523.04 1102.06C1523.04 1075.5 1520.7 1048.94 1523.04 1022.39C1527.73 991.147 1555.85 964.592 1587.87 963.81C1609.74 963.029 1659.73 964.592 1681.59 964.592Z" fill="black"/>
<path d="M1451.97 1036.45C1473.05 1027.08 1496.49 1023.17 1519.92 1024.73C1527.73 1025.51 1535.54 1027.86 1542.57 1034.1L1552.72 1042.7C1562.88 1051.29 1550.38 1066.13 1540.22 1057.54C1527.73 1046.6 1512.89 1048.16 1498.05 1048.94C1483.21 1050.51 1469.15 1053.63 1455.09 1059.1C1441.81 1064.57 1433.22 1045.04 1445.72 1038.79C1445.72 1038.79 1451.97 1036.45 1451.97 1036.45Z" fill="black"/>
<path d="M1100.5 1064.57C1095.03 1077.06 1088.78 1078.62 1078.63 1077.84L1055.98 1078.62C1010.68 1078.62 964.594 1077.84 919.294 1070.81C903.673 1070.03 902.892 1048.16 918.513 1047.38L1099.72 1041.13C1105.18 1041.13 1109.09 1046.6 1106.74 1051.29L1100.5 1064.57Z" fill="black"/>
<path d="M2250.97 658.421C2725.07 1571.46 1891.69 2601.66 898.203 2350.17C452.226 2239.26 93.7255 1852.64 19.5261 1398.85C-64.8268 947.408 139.026 462.379 520.176 206.977C1042.7 -152.304 1766.73 -32.8042 2140.85 481.124C2143.19 483.467 2142.41 487.372 2139.28 489.715C2136.94 492.059 2133.04 491.278 2130.69 488.153C2079.14 421.764 2020.57 361.624 1956.52 307.732C1851.08 217.912 1727.67 147.617 1597.24 99.9736C933.35 -140.588 204.634 259.307 59.3595 953.657C-104.66 1731.58 556.886 2447.8 1345.74 2340.79C1954.18 2264.25 2406.4 1702.68 2356.42 1091.9C2345.48 944.284 2306.43 798.229 2241.6 663.889C2240.04 661.546 2241.6 658.421 2243.94 656.859C2246.29 655.297 2249.41 656.078 2250.97 658.421Z" fill="black"/>
</g>
</svg>