<?xml version="1.0" standalone="no"?>
<!DOCTYPE svg PUBLIC "-//W3C//DTD SVG 1.1//EN" "http://www.w3.org/Graphics/SVG/1.1/DTD/svg11.dtd">
<svg xmlns="http://www.w3.org/2000/svg" width="2390" height="2390" viewBox="0 0 2390 2390" fill="none">
<mask id="mask0_2610_2886" style="mask-type:alpha" maskUnits="userSpaceOnUse" x="0" y="0" width="2383" height="2383">
<circle cx="1191.08" cy="1191.08" r="1191.08" fill="#D9D9D9"/>
</mask>
<g mask="url(#mask0_2610_2886)">
<path d="M1844.05 2174.43C1838.58 2178.34 1832.33 2182.24 1826.87 2186.15C1820.62 2190.05 1815.15 2193.96 1808.9 2197.08C1803.44 2200.21 1798.75 2203.33 1793.28 2206.45C1792.5 2207.24 1791.72 2207.24 1790.94 2208.02C1772.98 2218.95 1754.23 2229.11 1735.49 2238.48C1730.02 2241.6 1723.77 2244.73 1718.3 2247.07C1718.3 2247.07 1717.52 2247.85 1716.74 2247.85C1710.49 2250.97 1704.24 2254.1 1697.99 2257.22C1685.5 2263.47 1672.22 2268.94 1659.72 2274.41C1653.48 2277.53 1646.45 2279.87 1640.2 2282.22C1633.95 2284.56 1626.92 2287.68 1620.67 2290.03C1614.42 2292.37 1607.39 2295.49 1601.15 2297.84C1601.15 2297.84 1601.15 2297.84 1600.36 2297.84C1594.12 2300.18 1587.09 2302.52 1580.84 2304.87C1566.78 2309.55 1551.94 2314.24 1537.88 2318.93C1533.19 2320.49 1527.73 2322.05 1523.04 2323.61C1508.2 2328.3 1493.36 2332.2 1478.52 2335.33C1473.05 2336.89 1467.59 2337.67 1461.34 2339.23C1447.28 2342.36 1432.44 2345.48 1418.38 2348.61C1415.26 2349.39 1412.91 2349.39 1409.79 2350.17C1405.1 2350.95 1399.64 2351.73 1394.95 2352.51C1387.92 2353.29 1381.67 2354.85 1374.64 2355.63C1371.52 2356.42 1368.39 2356.42 1365.27 2357.2C1361.36 2357.98 1356.68 2358.76 1351.99 2358.76C1339.49 2360.32 1326.22 2361.88 1313.72 2363.44C1309.82 2364.23 1305.13 2364.23 1301.22 2365.01H1300.44C1294.98 2365.79 1289.51 2365.79 1284.04 2366.57C1278.57 2367.35 1273.11 2367.35 1267.64 2367.35C1264.51 2367.35 1260.61 2368.13 1257.49 2368.13C1251.24 2368.13 1245.77 2368.91 1240.3 2368.91C1232.49 2368.91 1225.46 2369.69 1217.65 2369.69C1209.84 2369.69 1202.81 2369.69 1195 2369.69C1189.53 2369.69 1184.07 2369.69 1178.6 2369.69C848.998 2365.01 552.982 2225.2 341.319 2003.38C341.319 2003.38 341.319 2002.6 340.537 2002.6C317.106 1981.51 337.413 1869.04 431.92 1797.97C550.639 1708.15 834.939 1651.91 834.939 1651.91C834.939 1651.91 945.067 1633.95 1353.55 1719.08C1592.55 1769.07 1774.54 1841.71 1876.07 2038.53C1897.16 2079.14 1918.25 2141.63 1844.05 2174.43Z" fill="white"/>
<path d="M1355.9 1710.49C1505.86 1740.95 1665.97 1773.76 1789.38 1872.95C1830.77 1906.53 1858.11 1955.74 1880.76 2003.38C1891.69 2026.81 1902.63 2051.03 1911.22 2076.8C1915.91 2093.98 1922.94 2113.51 1919.03 2133.82C1918.25 2139.29 1913.56 2146.31 1909.66 2150.22C1891.69 2168.18 1872.17 2179.12 1852.64 2193.18C1737.83 2272.84 1605.83 2329.08 1469.15 2358.76C1164.54 2425.15 834.939 2373.6 567.041 2213.48C478.002 2159.59 395.992 2093.98 325.698 2016.66C317.887 2007.29 317.887 1991.67 317.887 1981.51C318.668 1958.08 324.917 1935.43 332.727 1914.34C351.472 1865.92 375.685 1817.49 417.08 1783.91C446.76 1763.6 478.783 1746.42 511.587 1732.36C614.685 1688.62 723.25 1658.16 834.939 1645.66C844.312 1644.88 845.874 1658.16 836.502 1659.72C729.498 1681.59 623.276 1714.4 524.083 1758.92C488.155 1776.88 449.884 1792.5 420.985 1820.62C393.649 1850.3 374.123 1887.01 358.502 1924.5C348.348 1947.15 341.319 1983.08 344.443 2001.04C393.649 2059.62 451.446 2111.17 513.93 2155.69C856.028 2394.69 1375.42 2410.31 1739.39 2211.14C1772.19 2193.18 1804.22 2172.87 1834.68 2151.78C1849.52 2141.63 1865.14 2133.04 1876.85 2121.32C1877.64 2120.54 1876.85 2121.32 1876.85 2122.1C1876.85 2122.88 1876.07 2123.66 1876.07 2123.66C1876.85 2114.29 1873.73 2101.79 1869.83 2089.3C1855.77 2044 1833.12 1996.35 1808.9 1954.96C1770.63 1893.26 1705.81 1854.2 1640.2 1822.96C1594.9 1801.87 1547.25 1785.47 1498.83 1769.85C1450.4 1754.23 1401.2 1740.95 1351.99 1729.24C1339.5 1726.11 1343.4 1708.15 1355.9 1710.49Z" fill="black"/>
<path d="M2103.36 2658.68H128.096C128.096 2658.68 244.472 2413.43 296.021 2133.82C331.949 1940.12 358.505 1826.87 459.26 1764.38C530.335 1720.64 730.282 1657.38 872.433 1637.07C930.23 1629.26 1045.04 1620.67 1144.24 1628.48C1219.22 1637.85 1373.86 1681.59 1433.22 1697.99C1522.26 1722.99 1715.18 1797.19 1800.32 1875.29C1833.9 1906.53 1913.57 2062.74 1965.12 2289.24C2024.48 2546.99 2103.36 2658.68 2103.36 2658.68Z" fill="#B6C9F0"/>
<path d="M2121.32 2668.05C1533.19 2672.74 708.411 2683.67 128.875 2682.89C111.692 2683.67 99.1949 2664.15 107.005 2648.53C121.064 2618.85 134.342 2588.39 146.839 2557.14C203.074 2418.12 250.718 2275.19 279.616 2128.35C303.048 2013.54 321.793 1885.44 408.489 1798.75C432.701 1774.54 462.381 1755.79 492.842 1741.73C554.545 1713.61 617.809 1690.18 681.855 1669.88C810.728 1627.7 947.411 1609.73 1083.31 1612.08C1151.26 1612.08 1220 1623.01 1286.38 1638.63C1315.28 1644.1 1355.9 1656.6 1384.02 1664.41L1408.23 1671.44C1412.91 1673.78 1414.48 1683.15 1416.82 1687.84C1418.38 1690.96 1419.94 1691.74 1422.29 1692.53C1426.19 1693.31 1432.44 1687.84 1436.35 1689.4C1515.23 1712.83 1590.99 1747.2 1663.63 1785.47C1715.18 1814.37 1768.29 1842.49 1810.47 1884.66C1847.18 1931.53 1876.86 1983.86 1904.19 2036.97C1970.58 2173.65 1989.33 2328.3 2040.09 2469.67C2058.84 2523.56 2080.71 2577.45 2107.26 2628.22L2112.73 2638.37L2115.85 2643.84L2117.42 2646.18L2118.2 2647.74C2122.88 2650.87 2124.45 2662.58 2121.32 2668.05ZM2085.39 2649.31C2081.49 2653.99 2082.27 2664.15 2085.39 2668.05L2084.61 2666.49L2083.05 2663.37L2079.93 2657.9C2047.9 2601.66 2025.25 2541.52 2004.95 2480.6C1951.84 2321.27 1934.65 2151 1859.67 1999.48C1840.93 1961.21 1822.18 1922.15 1794.06 1890.13C1777.66 1875.29 1759.7 1862.79 1740.95 1851.08C1656.6 1799.53 1562.09 1764.38 1469.15 1730.8C1461.34 1727.67 1441.81 1721.42 1434 1719.08C1427.75 1717.52 1425.41 1716.74 1423.85 1708.93C1422.29 1702.68 1420.72 1694.87 1413.69 1697.99C1409.79 1699.56 1402.76 1708.93 1398.07 1708.15C1382.45 1704.24 1341.06 1693.31 1325.44 1689.4C1265.3 1673.78 1205.94 1654.25 1145.02 1642.54C957.564 1626.14 770.113 1658.94 591.254 1714.4C529.551 1735.48 461.6 1755.01 417.081 1805.78C339.757 1901.85 326.479 2063.52 302.267 2183.02C268.682 2349.39 217.914 2511.06 149.963 2668.05L128.094 2633.69C693.571 2636.03 1512.11 2643.06 2085.39 2649.31Z" fill="black"/>
<path d="M848.216 1715.96C824.003 1718.3 798.229 1723.77 776.36 1736.26C774.016 1737.83 770.892 1733.92 773.235 1732.36C793.543 1714.4 819.317 1704.24 844.311 1696.43C849.778 1694.87 855.245 1697.99 856.026 1703.46C858.369 1709.71 854.464 1715.96 848.216 1715.96Z" fill="black"/>
<path d="M910.702 1815.93C882.584 1822.18 855.248 1835.46 832.597 1854.21C814.633 1857.33 859.934 1820.62 863.058 1819.06C876.336 1809.69 889.614 1802.66 905.234 1796.41C909.921 1794.85 916.169 1797.19 917.731 1801.88C920.855 1808.9 916.95 1815.15 910.702 1815.93Z" fill="black"/>
<path d="M1011.45 1915.91C988.801 1933.87 969.275 1958.08 956.778 1984.64C955.997 1986.2 953.654 1986.98 952.092 1986.2C950.53 1985.42 949.749 1983.86 950.53 1982.29C955.216 1967.45 961.464 1952.61 970.056 1939.34C978.647 1925.28 988.02 1912.78 998.954 1901.07C1002.86 1897.16 1009.11 1897.16 1013.01 1901.07C1016.92 1904.97 1016.92 1912.78 1011.45 1915.91Z" fill="black"/>
<path d="M1180.16 1993.23C1166.88 2021.35 1156.73 2051.81 1155.17 2083.05C1155.17 2088.52 1145.79 2088.52 1145.79 2083.05C1144.23 2058.06 1148.14 2033.06 1155.17 2009.63C1159.07 2000.26 1159.85 1975.26 1175.47 1979.95C1180.16 1981.51 1182.5 1987.76 1180.16 1993.23Z" fill="black"/>
<path d="M1359.02 1996.35C1363.7 2007.29 1399.63 2094.77 1382.45 2095.55C1380.1 2095.55 1377.76 2093.98 1377.76 2091.64C1376.98 2083.83 1374.64 2076.8 1371.51 2068.99C1363.7 2047.12 1352.77 2025.25 1341.05 2004.95C1335.58 1993.23 1353.55 1983.86 1359.02 1996.35Z" fill="black"/>
<path d="M1433.22 1823.74C1462.12 1829.21 1486.33 1846.39 1504.29 1868.26C1505.08 1869.04 1505.08 1871.39 1504.29 1872.17C1503.51 1872.95 1501.95 1872.95 1500.39 1872.17C1481.64 1855.77 1456.65 1844.05 1431.66 1843.27C1416.82 1842.49 1419.16 1821.4 1433.22 1823.74Z" fill="black"/>
<path d="M1405.1 1732.36C1429.31 1738.61 1451.96 1748.76 1469.93 1765.95C1471.49 1767.51 1471.49 1769.85 1469.93 1771.41C1468.36 1772.98 1466.8 1772.98 1465.24 1772.19C1446.49 1759.7 1423.84 1753.45 1401.98 1751.89C1387.92 1750.33 1391.04 1729.24 1405.1 1732.36Z" fill="black"/>
<path d="M1433.22 1933.87C1455.09 1951.83 1476.96 1970.58 1491.02 1995.57C1491.8 1996.35 1491.02 1997.91 1490.24 1998.7C1489.45 1999.48 1487.89 1998.7 1487.11 1997.91C1469.93 1976.83 1446.5 1962.77 1423.07 1949.49C1410.57 1943.24 1421.5 1925.28 1433.22 1933.87Z" fill="black"/>
<path d="M1429.31 1918.25C1412.91 1998.7 1306.68 2047.12 1127.82 1974.48C941.936 1899.5 861.488 1720.64 841.181 1667.53C951.309 1461.34 874.766 1318.41 874.766 1318.41C1128.61 1296.54 1350.42 1593.33 1350.42 1593.33L1384.79 1740.17C1387.91 1752.67 1394.16 1763.6 1403.53 1771.41C1419.94 1800.31 1439.46 1866.7 1429.31 1918.25Z" fill="#AC6B48"/>
<path d="M837.279 1669.88C852.119 1647.23 861.492 1620.67 867.74 1594.9C879.456 1541 883.361 1486.33 884.142 1431.66V1411.35C881.799 1391.04 874.77 1369.95 866.959 1351.21C856.806 1326.22 893.515 1310.59 905.23 1335.59C906.792 1338.71 906.792 1344.18 906.792 1347.3C909.136 1453.53 913.822 1590.21 846.652 1678.47C841.966 1683.15 832.593 1676.12 837.279 1669.88Z" fill="black"/>
<path d="M1359.02 1591.77C1370.73 1598.8 1374.64 1608.17 1376.2 1617.55C1380.88 1636.29 1379.32 1656.6 1384.01 1676.13C1387.91 1694.87 1399.63 1712.83 1402.75 1732.36C1406.66 1752.67 1418.37 1795.63 1423.06 1816.71C1424.62 1821.4 1421.5 1826.87 1416.03 1827.65C1412.91 1828.43 1410.56 1827.65 1408.22 1826.09C1398.07 1817.5 1393.38 1808.9 1387.13 1797.97C1376.98 1779.22 1369.95 1762.04 1363.7 1740.95C1358.23 1722.21 1360.58 1701.9 1355.89 1682.37C1351.99 1663.63 1341.05 1645.66 1337.15 1626.14C1334.8 1616.77 1334.02 1606.61 1341.05 1594.9C1345.74 1590.21 1353.55 1588.65 1359.02 1591.77Z" fill="black"/>
<path d="M1415.25 1797.97C1266.07 1790.16 1144.23 1743.29 1025.51 1531.63C1125.49 1619.89 1243.42 1653.47 1367.61 1669.09L1384.01 1740.95C1387.14 1753.45 1405.88 1790.16 1415.25 1797.97Z" fill="black"/>
<path d="M1409.01 1769.07C1435.56 1819.06 1451.18 1881.54 1434.78 1936.99C1422.29 1976.05 1386.36 2004.94 1347.31 2015.88C1256.7 2040.09 1152.04 2001.82 1071.6 1958.86C972.403 1903.41 898.985 1810.46 852.122 1708.93C848.998 1701.12 859.933 1694.87 864.619 1702.68C881.021 1735.48 899.766 1767.51 920.854 1796.41C941.943 1826.09 966.155 1853.42 993.492 1877.63C1073.16 1949.49 1180.94 1994.01 1288.73 1994.01C1399.64 1990.89 1441.81 1932.31 1416.04 1824.52C1412.13 1807.34 1405.88 1789.38 1397.29 1774.54C1392.61 1768.29 1404.32 1761.26 1409.01 1769.07Z" fill="black"/>
<path d="M1711.27 831.034C1725.33 896.642 1732.36 949.753 1694.09 1124.71C1656.6 1298.88 1747.98 1334.81 1531.63 1613.64C1443.37 1727.67 1229.36 1695.65 1055.97 1577.71C997.394 1537.88 972.401 1435.56 928.662 1362.93C894.296 1305.91 878.675 1365.27 833.374 1316.06C771.672 1248.89 697.472 1113.77 734.182 874.772C793.541 487.374 1100.49 442.073 1327.78 485.03C1556.62 528.769 1673.78 658.423 1711.27 831.034Z" fill="#AC6B48"/>
<path d="M872.427 1385.58C854.462 1355.12 831.031 1328.56 809.162 1300.44C788.074 1271.54 770.891 1239.52 756.832 1206.72C663.887 978.651 699.815 657.641 927.881 523.302C1022.39 468.628 1136.42 455.351 1242.64 463.942C1469.93 480.344 1678.47 585.004 1727.67 825.566C1754.23 931.788 1718.3 1041.13 1697.99 1145.01C1688.62 1196.56 1696.43 1249.67 1695.65 1302.79C1694.87 1356.68 1680.03 1410.57 1659.72 1460.56C1647.22 1494.92 1625.35 1525.38 1602.7 1553.5C1565.21 1598.8 1527.72 1644.88 1480.08 1680.03C1469.15 1687.84 1449.62 1691.75 1436.34 1693.31C1399.63 1698.78 1363.7 1700.34 1327 1697.99C1183.28 1691.75 1029.42 1622.23 971.619 1483.21C969.276 1477.74 977.087 1473.83 980.211 1478.52C1055.19 1597.24 1192.66 1655.82 1329.34 1663.63C1371.51 1665.97 1414.47 1665.19 1455.87 1656.6C1476.17 1646.45 1494.14 1628.48 1511.32 1612.08C1553.5 1569.9 1596.46 1524.6 1626.92 1473.05C1663.63 1403.54 1683.93 1327.78 1677.68 1248.89C1676.12 1213.75 1675.34 1177.04 1682.37 1141.89C1688.62 1106.74 1696.43 1073.16 1701.12 1037.23C1705.8 1002.86 1708.15 967.717 1708.15 933.351C1704.24 832.596 1671.44 728.717 1607.39 650.612C1466.02 474.877 1131.73 428.795 943.502 549.076C824.783 622.494 769.328 759.958 751.364 893.517C724.028 1053.63 731.838 1211.4 859.149 1327.78L896.639 1366.83C911.479 1384.01 884.923 1404.32 872.427 1385.58Z" fill="black"/>
<path d="M964.587 1137.2C964.587 1137.2 940.375 1020.05 826.342 1034.1C727.93 1046.6 693.564 1282.48 916.943 1348.09" fill="#AC6B48"/>
<path d="M906.792 1245.77C888.828 1235.62 876.332 1218.43 875.551 1197.34C876.332 1181.72 878.675 1163.76 874.77 1148.14C872.426 1133.3 856.806 1129.39 845.09 1130.17C832.593 1132.52 824.783 1148.14 822.44 1160.64C822.44 1161.42 821.658 1163.76 821.658 1164.54C820.877 1168.45 814.629 1168.45 813.067 1164.54C802.913 1134.08 825.564 1100.49 858.368 1104.4C904.449 1107.52 910.698 1155.95 902.106 1192.66C897.42 1208.28 903.668 1222.34 912.26 1235.62L913.822 1237.96C917.727 1242.65 911.479 1248.89 906.792 1245.77Z" fill="black"/>
<path d="M1531.63 1054.41C1543.34 1109.87 1565.21 1161.42 1592.55 1209.84C1616.76 1269.2 1554.28 1325.44 1498.82 1323.09C1492.57 1323.09 1491.79 1314.5 1497.26 1312.94C1532.41 1302 1564.43 1278.57 1569.9 1242.64C1572.24 1231.71 1569.12 1222.34 1563.65 1212.96C1537.88 1164.54 1522.25 1109.09 1526.16 1054.41C1526.16 1050.51 1531.63 1050.51 1531.63 1054.41Z" fill="black"/>
<path d="M960.685 1137.99C942.721 1091.9 903.668 1048.16 851.338 1048.95C846.652 1048.16 838.842 1049.73 834.155 1049.73C820.878 1050.51 809.943 1055.19 799.789 1064.57C749.802 1114.55 758.394 1202.81 799.008 1258.27C813.067 1277.79 831.031 1294.98 851.338 1309.03C871.646 1323.09 894.296 1334.03 918.508 1343.4C923.976 1344.96 921.632 1353.55 916.165 1352.77C863.835 1341.84 813.848 1316.06 779.482 1273.11C726.371 1209.06 715.436 1102.06 778.701 1039.57C792.76 1027.08 812.286 1017.7 831.812 1017.7C838.061 1017.7 847.433 1016.14 853.681 1017.7C886.485 1019.27 917.727 1035.67 938.034 1061.44C955.998 1083.31 966.152 1109.87 969.276 1136.42C969.276 1141.11 962.247 1142.67 960.685 1137.99Z" fill="black"/>
<path d="M1475.39 1417.6C1424.62 1405.1 1372.29 1416.04 1320.75 1419.16C1315.28 1419.16 1313.72 1412.13 1318.4 1409.79C1360.58 1384.79 1434.78 1365.27 1475.39 1400.42C1478.52 1404.32 1487.89 1412.91 1480.86 1417.6C1479.3 1418.38 1476.95 1418.38 1475.39 1417.6Z" fill="black"/>
<path d="M1360.58 952.875C1377.76 951.312 1386.36 931.005 1376.98 915.384C1371.52 907.574 1364.49 900.544 1354.33 896.639C1324.65 887.267 1227.8 908.355 1185.63 956.78C1148.14 1001.3 1282.48 959.904 1360.58 952.875Z" fill="black"/>
<path d="M1566.78 965.37C1553.5 961.465 1549.6 941.939 1560.53 929.442C1566 923.194 1573.81 917.727 1582.4 916.165C1608.96 911.478 1669.88 935.691 1687.06 981.772C1702.68 1021.61 1630.04 980.991 1566.78 965.37Z" fill="black"/>
<path d="M1240.3 1134.08C1221.56 1133.3 1207.5 1117.68 1209.06 1098.93L1209.84 1077.06C1210.62 1058.32 1226.24 1044.26 1244.99 1045.82C1263.73 1046.6 1277.79 1062.22 1276.23 1080.97L1275.45 1102.84C1274.67 1120.8 1259.05 1134.86 1240.3 1134.08Z" fill="black"/>
<path d="M1569.12 1145.79C1551.94 1145.01 1538.66 1130.17 1539.44 1112.99L1540.22 1092.68C1541 1075.5 1555.84 1062.22 1573.02 1063C1590.21 1063.78 1603.49 1078.62 1602.7 1095.81L1601.92 1116.11C1601.14 1133.3 1586.3 1146.57 1569.12 1145.79Z" fill="black"/>
<path d="M1310.59 1091.9C1284.82 1074.72 1256.7 1063 1225.46 1069.25C1215.31 1070.81 1205.15 1073.94 1198.9 1080.97C1196.56 1084.09 1191.09 1083.31 1191.09 1078.62C1191.87 1063 1205.15 1052.85 1217.65 1046.6C1241.86 1034.1 1275.45 1036.45 1297.32 1052.85C1305.13 1057.54 1331.68 1086.43 1317.62 1092.68C1314.5 1094.24 1312.94 1093.46 1310.59 1091.9Z" fill="black"/>
<path d="M1533.97 1095.81C1533.97 1063 1574.58 1051.29 1599.58 1063C1613.64 1069.25 1623.79 1081.75 1627.69 1096.59C1629.26 1101.27 1622.23 1105.18 1619.1 1101.27C1605.83 1085.65 1583.18 1077.84 1565.21 1087.22C1559.74 1090.34 1558.96 1092.68 1557.4 1095.81C1557.4 1111.43 1534.75 1110.65 1533.97 1095.81Z" fill="black"/>
<path d="M1746.63 576.358C1760.69 543.554 1760.69 507.626 1737.25 476.384C1669.3 386.564 1459.2 454.515 1342.04 417.025C1166.31 360.008 948.398 352.979 820.306 563.861C788.283 616.972 772.662 631.812 727.362 673.989C680.499 717.727 643.79 798.175 640.666 908.302C633.636 1129.34 807.028 1321.48 807.028 1321.48C815.62 1333.19 823.43 1343.34 830.46 1351.94C892.943 1426.92 912.47 1571.41 893.724 1343.34C699.244 1268.36 734.391 1050.45 828.898 1038.74C928.872 1026.24 960.113 1115.28 965.581 1137.15C1032.75 1094.19 1008.54 1002.81 1000.73 917.675C1053.06 894.244 1097.58 838.008 1121.01 787.24C1146.78 823.168 1178.03 851.286 1215.52 854.41C1255.35 858.315 1278.78 824.73 1286.59 777.087C1338.14 845.038 1429.52 929.391 1573.23 945.793C1641.97 953.603 1698.98 924.704 1737.25 877.061C1747.41 878.623 1756.78 879.404 1766.15 878.623C1866.91 868.469 1979.38 664.616 1746.63 576.358Z" fill="black"/>
<path d="M877.115 1161.41C877.115 1161.41 814.631 1152.04 819.317 1239.52C821.661 1284.04 821.661 1308.25 820.88 1320.75C820.098 1329.34 825.566 1337.15 833.376 1340.27C842.749 1344.18 852.902 1340.27 857.589 1330.9C864.618 1318.41 872.429 1301.22 872.429 1287.16C872.429 1263.73 897.422 1242.64 897.422 1242.64C897.422 1242.64 874.772 1223.12 877.115 1161.41Z" fill="#B6C9F0"/>
<path d="M874.772 1163.76C874.772 1164.54 875.553 1165.32 876.334 1165.32C876.334 1165.32 876.334 1165.32 875.553 1165.32H873.991C836.501 1168.44 824.785 1201.25 826.347 1234.83C827.128 1256.7 828.69 1278.57 827.909 1299.66C829.471 1311.38 822.442 1327 834.157 1333.25C841.187 1337.15 850.559 1334.03 853.684 1326.22C860.713 1312.16 867.742 1298.1 867.742 1282.48C870.867 1264.51 882.582 1250.45 895.079 1239.52V1245.77C878.677 1228.58 874.772 1205.15 872.429 1183.28C873.21 1177.82 873.21 1169.23 874.772 1163.76ZM880.239 1158.29C882.582 1180.16 882.582 1202.81 891.955 1222.34C894.298 1227.8 898.203 1234.05 902.889 1237.96C906.014 1240.3 906.014 1244.99 902.889 1247.33C891.955 1257.48 882.582 1269.98 881.02 1284.04C881.02 1301.22 873.991 1317.62 866.18 1332.46C859.932 1345.74 841.968 1352.77 828.69 1344.96C820.099 1340.27 813.85 1330.9 813.85 1320.75C813.85 1312.94 814.631 1306.69 814.631 1298.88C814.631 1277.01 813.069 1255.92 812.288 1234.05C812.288 1219.99 813.069 1203.59 819.317 1189.53C827.128 1167.66 851.34 1152.82 874.772 1156.73C877.115 1156.73 879.458 1157.51 880.239 1158.29Z" fill="black"/>
<path d="M866.961 2086.17C892.736 1973.7 859.151 1847.17 830.252 1734.7C818.536 1690.18 806.821 1648.01 801.353 1611.3C791.2 1549.6 798.229 1491.02 823.223 1436.34C853.683 1368.39 848.997 1310.6 848.997 1308.25L833.376 1309.81C833.376 1310.6 838.063 1366.83 809.164 1430.1C783.389 1487.11 775.579 1548.81 785.732 1613.64C791.981 1651.13 802.915 1694.09 814.631 1738.61C843.53 1848.74 876.334 1973.7 851.34 2082.27C837.281 2142.41 864.618 2240.82 903.67 2339.23C909.919 2340.01 915.386 2340.79 921.634 2341.58C881.801 2243.16 853.683 2143.97 866.961 2086.17Z" fill="black"/>
<path d="M821.661 1284.82C822.442 1302 821.661 1313.72 821.661 1320.75C820.88 1329.34 826.347 1337.15 834.157 1340.27C843.53 1344.18 853.684 1340.27 858.37 1330.9C865.399 1318.41 873.21 1301.22 873.21 1287.16C873.21 1286.38 873.21 1284.82 873.21 1284.04C857.589 1290.29 838.844 1294.97 821.661 1284.82Z" fill="#B6C9F0"/>
<path d="M824.004 1287.94C824.785 1298.88 825.566 1309.03 825.566 1319.97C824.785 1324.65 826.347 1329.34 829.471 1333.25C839.625 1343.4 853.684 1337.15 857.589 1324.65C863.837 1312.16 869.304 1298.88 869.304 1284.82L874.772 1288.73C857.589 1291.85 839.625 1296.54 823.223 1289.51C823.223 1289.51 824.004 1288.73 824.004 1287.94ZM820.099 1280.92C821.661 1280.92 824.785 1281.7 826.347 1283.26C840.406 1293.41 858.37 1288.73 872.429 1280.92C874.772 1279.35 878.677 1281.7 877.896 1284.82C877.115 1302.78 870.086 1319.97 860.713 1335.59C852.121 1347.3 834.157 1348.09 824.004 1337.93C819.318 1333.25 816.974 1325.43 817.755 1319.19C817.755 1305.91 819.318 1293.41 820.099 1280.92Z" fill="black"/>
<path d="M1557.41 1804.22C1570.68 1712.05 1558.19 1646.44 1553.5 1626.92C1551.16 1628.48 1549.6 1630.82 1547.25 1632.39C1544.91 1634.73 1542.57 1636.29 1540.22 1638.63C1544.91 1663.63 1553.5 1722.99 1541.78 1801.87C1536.32 1838.58 1534.76 1896.38 1533.97 1963.55C1532.41 2028.38 1512.11 2190.05 1487.89 2343.14C1493.36 2341.57 1498.83 2340.01 1504.29 2339.23C1528.51 2187.71 1548.03 2029.16 1549.6 1964.33C1551.16 1897.16 1551.94 1840.14 1557.41 1804.22Z" fill="black"/>
<path d="M1366.84 1230.93C1330.91 1231.71 1220 1232.49 1185.63 1233.27C1126.27 1234.05 1081.75 1182.5 1087.22 1123.92C1088 1104.4 1087.22 1077.06 1088 1057.54C1089.56 1006.77 1134.87 963.81 1185.63 965.372L1317.63 966.934C1327.78 966.934 1356.68 967.716 1366.84 967.716C1409.01 966.934 1448.85 998.176 1458.22 1039.57C1461.34 1051.29 1460.56 1063.78 1460.56 1073.94V1140.33C1459.78 1189.53 1416.04 1231.71 1366.84 1230.93ZM1366.84 1213.74C1407.45 1215.31 1444.94 1180.16 1445.72 1139.55C1446.5 1118.46 1445.72 1095.81 1445.72 1073.94C1450.41 1026.29 1414.48 982.555 1366.06 984.117C1332.47 984.899 1220 985.68 1184.85 986.461C1142.68 986.461 1106.75 1024.73 1109.87 1066.91C1109.87 1072.38 1109.87 1086.43 1109.87 1091.9C1110.65 1109.08 1108.31 1138.76 1112.22 1154.39C1120.03 1187.19 1151.27 1212.18 1184.85 1212.18H1201.25C1223.9 1212.18 1343.4 1213.74 1366.84 1213.74Z" fill="black"/>
<path d="M1681.59 988.023L1619.89 988.804C1602.71 989.585 1582.4 986.461 1567.56 996.614C1553.5 1005.99 1547.25 1023.17 1548.04 1039.57C1548.04 1059.88 1548.04 1080.97 1547.25 1101.27L1546.47 1098.15C1557.41 1136.42 1572.25 1173.13 1594.9 1205.15L1587.09 1200.47C1593.34 1202.03 1604.27 1202.03 1610.52 1202.03C1633.95 1202.81 1661.29 1204.37 1684.72 1204.37C1706.59 1204.37 1727.68 1187.97 1732.36 1166.1C1733.92 1159.85 1733.92 1148.92 1733.92 1142.67C1733.92 1109.09 1734.71 1076.28 1733.14 1042.7C1734.71 1013.02 1712.06 986.461 1681.59 988.023ZM1681.59 964.592C1722.99 964.592 1751.89 1004.42 1744.86 1043.48C1743.3 1077.06 1744.08 1109.87 1744.08 1143.45C1747.98 1182.5 1724.55 1217.65 1683.94 1220.77C1666.75 1221.56 1650.35 1221.56 1633.95 1222.34C1625.36 1222.34 1604.27 1223.9 1596.46 1223.9C1592.56 1224.68 1586.31 1223.9 1582.4 1223.9C1579.28 1223.9 1576.15 1221.56 1574.59 1219.21C1550.38 1183.28 1533.2 1143.45 1523.04 1102.06C1523.04 1075.5 1520.7 1048.94 1523.04 1022.39C1527.73 991.147 1555.85 964.592 1587.87 963.81C1609.74 963.029 1659.73 964.592 1681.59 964.592Z" fill="black"/>
<path d="M1451.97 1036.45C1473.06 1027.08 1496.49 1023.17 1519.92 1024.73C1527.73 1025.51 1535.54 1027.86 1542.57 1034.1L1552.72 1042.7C1562.88 1051.29 1550.38 1066.13 1540.23 1057.54C1527.73 1046.6 1512.89 1048.16 1498.05 1048.94C1483.21 1050.51 1469.15 1053.63 1455.09 1059.1C1441.81 1064.57 1433.22 1045.04 1445.72 1038.79C1445.72 1038.79 1451.97 1036.45 1451.97 1036.45Z" fill="black"/>
<path d="M1100.5 1064.57C1095.03 1077.06 1088.78 1078.62 1078.63 1077.84L1055.98 1078.62C1010.68 1078.62 964.594 1077.84 919.294 1070.81C903.673 1070.03 902.892 1048.16 918.513 1047.38L1099.72 1041.13C1105.18 1041.13 1109.09 1046.6 1106.74 1051.29L1100.5 1064.57Z" fill="black"/>
<path d="M2250.97 658.421C2725.07 1571.46 1891.69 2601.66 898.203 2350.17C452.226 2239.26 93.7255 1852.64 19.5261 1398.85C-64.8268 947.408 139.026 462.379 520.176 206.977C1042.7 -152.304 1766.73 -32.8042 2140.85 481.124C2143.19 483.467 2142.41 487.372 2139.28 489.715C2136.94 492.059 2133.04 491.278 2130.69 488.153C2079.14 421.764 2020.57 361.624 1956.52 307.732C1851.08 217.912 1727.67 147.617 1597.24 99.9736C933.35 -140.588 204.634 259.307 59.3595 953.657C-104.66 1731.58 556.886 2447.8 1345.74 2340.79C1954.18 2264.25 2406.4 1702.68 2356.42 1091.9C2345.48 944.284 2306.43 798.229 2241.6 663.889C2240.04 661.546 2241.6 658.421 2243.94 656.859C2246.29 655.297 2249.41 656.078 2250.97 658.421Z" fill="black"/>
</g>
</svg>